<svg width="65" height="65" viewBox="0 0 65 65" fill="none" xmlns="http://www.w3.org/2000/svg">
<path d="M64.0217 31.3447C63.9492 31.1089 63.7879 30.9103 63.5719 30.7911C60.8184 29.2706 57.4042 28.583 53.622 28.7755C54.3796 26.8062 54.8374 24.7856 54.9623 22.7883C55.2498 18.1928 53.7538 14.2632 50.7497 11.7234C47.7456 9.18367 43.622 8.36228 39.1384 9.41028C35.9768 10.1493 32.9002 11.7614 30.1999 14.059C30.0251 13.7983 29.8434 13.5415 29.6533 13.2919C29.3936 12.9506 29.1252 12.6095 28.8557 12.2779C27.1446 10.1716 25.2463 8.26363 23.2135 6.60715C22.806 6.27491 22.2061 6.33611 21.874 6.74375C21.5418 7.1514 21.603 7.75125 22.0106 8.08323C23.9427 9.65784 25.7485 11.473 27.378 13.4787C27.6348 13.7949 27.8907 14.1201 28.1383 14.4454C28.3649 14.7431 28.58 15.0507 28.7812 15.3651C28.6518 15.4936 28.5236 15.6241 28.3965 15.7559C28.3898 15.7629 28.3831 15.77 28.3762 15.777C26.1855 18.0482 24.4024 20.7295 23.2224 23.6592C23.1828 23.7571 23.1429 23.8549 23.1046 23.9533C22.8415 23.8884 22.5782 23.8316 22.3147 23.7829L19.971 20.8978C20.6002 19.896 22.3916 16.6829 22.2897 12.7146C22.2762 12.1889 21.8353 11.7744 21.3134 11.7872C20.7877 11.8007 20.3724 12.2378 20.386 12.7635C20.4611 15.6858 19.3586 18.126 18.6926 19.3243L15.2985 15.1464C15.9792 13.9767 17.2936 11.2798 17.2097 8.00998C17.1962 7.48427 16.7585 7.06901 16.2334 7.08259C15.7077 7.09605 15.2924 7.53315 15.306 8.05886C15.3649 10.3532 14.5877 12.3604 13.9965 13.5437L10.7453 9.54155C10.4137 9.13339 9.814 9.07131 9.4061 9.40291C8.99794 9.73452 8.93586 10.3341 9.26746 10.7421L12.521 14.747C11.2463 15.0843 9.12845 15.4333 6.88214 14.9028C6.37001 14.7818 5.8575 15.0988 5.73664 15.6105C5.61578 16.1223 5.93266 16.6352 6.44441 16.756C7.43604 16.9903 8.40088 17.0803 9.29857 17.0803C11.2821 17.0803 12.9363 16.641 13.821 16.3472L17.2152 20.525C15.906 20.9317 13.2919 21.5109 10.4465 20.8389C9.93435 20.7179 9.42197 21.0349 9.30111 21.5466C9.18025 22.0584 9.49712 22.5713 10.0089 22.692C11.09 22.9473 12.1428 23.0456 13.1239 23.0456C15.6504 23.0454 17.6952 22.3942 18.4937 22.0985L19.6852 23.5652C19.6247 23.5664 19.5643 23.5694 19.5038 23.5715C18.0262 23.6245 16.5611 23.9443 15.1958 24.5128C13.2527 25.3217 11.5403 26.6186 10.1307 28.3321C9.99046 28.1653 9.85132 27.997 9.71459 27.8286C6.18682 23.4862 3.77496 18.6521 2.73991 13.8491C1.79056 9.44379 2.11987 5.3738 3.66324 2.33289C8.06674 1.14156 13.644 2.43649 19.0404 5.91932C19.4821 6.20446 20.0716 6.0775 20.3567 5.63558C20.6418 5.19378 20.5149 4.60446 20.073 4.31933C14.0493 0.432277 7.72854 -0.916092 2.73077 0.620548C2.49489 0.693039 2.29659 0.854396 2.17726 1.07022C-1.79117 8.25602 0.700538 19.7533 8.23635 29.0294C8.48023 29.3296 8.73134 29.6287 8.98347 29.9217C8.36267 30.9067 7.82464 31.9927 7.37891 33.1704C5.63241 37.7848 5.51117 43.2772 7.03753 48.6363C8.56364 53.9947 11.5607 58.5986 15.4765 61.5999C18.4012 63.8417 21.5829 64.9999 24.6994 64.9999C25.8446 64.9999 26.981 64.8435 28.0927 64.5269C30.1307 63.9463 31.9555 62.8634 33.4966 61.3509C35.7552 62.9227 38.3024 63.8035 40.9152 63.9031C44.7792 64.0507 48.3273 62.2916 51.2633 59.9064C53.8604 57.7966 56.1715 55.4379 58.1322 52.896C58.4534 52.4796 58.3762 51.8817 57.96 51.5606C57.5437 51.2396 56.9457 51.3166 56.6245 51.7329C54.7535 54.1585 52.5457 56.4111 50.0626 58.4284C47.4343 60.564 44.465 62.133 40.9879 62.0002C38.8133 61.9172 36.6824 61.2009 34.7711 59.9185C35.6392 58.8041 36.3842 57.5253 36.9883 56.1C38.6906 57.0188 41.6602 58.2604 45.2753 58.2604C45.9138 58.2604 46.6267 58.0713 46.6064 57.279C46.593 56.7533 46.1566 56.3375 45.6301 56.3516C42.0489 56.4437 39.0728 55.0834 37.6533 54.2904C37.7558 53.9646 37.8507 53.6353 37.9378 53.3023L41.8585 50.117C42.8494 50.7481 46.2386 52.6866 50.4846 52.6866C51.1072 52.6866 51.793 52.4681 51.7674 51.7057C51.754 51.18 51.3144 50.766 50.7912 50.7783C47.4636 50.8639 44.7044 49.5685 43.4276 48.842L48.1658 44.9928C49.3701 45.7016 52.2034 47.1132 55.6748 47.1132C56.2941 47.1132 56.9483 46.8767 56.9285 46.1327C56.915 45.607 56.4783 45.1919 55.9522 45.2053C53.3326 45.2729 51.0526 44.3544 49.764 43.6942L54.2649 40.0378C54.673 39.7062 54.7351 39.1066 54.4035 38.6986C54.0719 38.2905 53.4723 38.2284 53.0643 38.56L48.5606 42.2186C48.2464 41.0782 47.9003 39.2514 48.1196 37.2147C48.1466 37.1871 48.1737 37.1596 48.2006 37.132C50.0334 35.2572 51.5893 33.0943 52.7558 30.745C56.4097 30.4096 59.6939 30.9358 62.3095 32.2757C63.5959 36.9766 62.2942 42.9475 58.7062 48.7345C58.4291 49.1814 58.5667 49.7684 59.0137 50.0453C59.4607 50.3224 60.0476 50.1847 60.3245 49.7378C64.2977 43.3302 65.6453 36.626 64.0217 31.3447ZM24.9695 24.4174C26.2021 21.3533 28.226 18.4723 30.6385 16.2207C30.6395 16.2198 30.6403 16.2185 30.6413 16.2176C36.2269 11.0061 43.5109 9.37854 48.3604 12.342C48.1719 12.4519 47.9881 12.5623 47.8077 12.6728C47.7937 12.6814 47.7793 12.69 47.7654 12.6985C44.5154 14.6986 41.8589 17.4613 40.1289 20.8754C40.1265 20.8801 40.1243 20.8847 40.1219 20.8893C38.187 24.7571 36.9685 28.9767 34.2569 32.4221C34.2468 32.435 34.2365 32.4481 34.2263 32.461C32.8095 30.307 31.1044 28.4398 29.176 26.9618C27.8044 25.9105 26.3762 25.0977 24.9249 24.5308C24.9398 24.4929 24.9543 24.4551 24.9695 24.4174ZM26.8931 62.8643C23.5375 63.5802 19.9221 62.6082 16.6349 60.0886C13.0418 57.3344 10.2837 53.082 8.86883 48.1145C6.95679 41.4012 7.91948 34.764 10.9359 30.4257C10.9462 30.4125 10.9572 30.4001 10.967 30.3862C12.2539 28.5481 13.885 27.1739 15.7383 26.3531C15.7364 26.3804 15.7355 26.4065 15.7337 26.4338C15.3423 32.3733 17.506 37.9975 20.772 42.8633C24.229 48.0142 26.5582 53.8261 26.8482 60.0676C26.8912 60.9991 26.9049 61.9319 26.8931 62.8643ZM32.6733 59.4481C32.6549 59.4684 32.6381 59.4899 32.6218 59.5116C31.5178 60.7193 30.2315 61.6493 28.8014 62.2597C28.8014 61.4745 28.7831 60.6892 28.7442 59.9049C28.5814 56.6167 27.9988 53.3881 26.851 50.2964C26.6571 49.7741 26.449 49.2572 26.2273 48.7463C25.1704 46.3098 23.831 44.0055 22.353 41.8022C20.4815 39.0126 18.6885 36.1196 17.9944 32.7855C17.5154 30.4842 17.4853 28.1103 17.6946 25.7758C17.6965 25.7547 17.6991 25.7328 17.701 25.7117C17.7258 25.7062 17.7507 25.7003 17.7756 25.6949C19.6563 25.2972 21.594 25.4486 23.4219 26.0265C30.5009 28.2645 34.9667 35.7242 36.3085 42.6442C37.5658 49.1282 36.1728 55.567 32.6733 59.4481ZM38.4935 50.3975C38.7837 48.0667 38.7314 45.6247 38.3361 43.168C38.4149 43.146 38.4935 43.1224 38.5721 43.0993C38.917 42.9981 39.2588 42.8872 39.5975 42.7668C39.5998 45.5786 40.3368 47.8065 40.6564 48.6404L38.4935 50.3975ZM42.2277 47.3642C41.8843 46.2927 41.3936 44.2999 41.5249 41.9677C41.5275 41.9352 41.8061 41.8306 41.8348 41.8163C42.9334 41.2718 43.9834 40.6315 44.9788 39.9156C45.3806 39.6265 45.7727 39.3235 46.1554 39.0097C46.221 41.0014 46.6703 42.639 46.9657 43.5151L42.2277 47.3642ZM51.2608 29.4553C49.44 33.3442 46.5007 36.7479 42.8717 39.0519C41.4882 39.9304 39.9991 40.6509 38.4367 41.1497C38.4092 41.1585 37.9702 41.2987 37.968 41.2921C37.6824 40.0608 37.3157 38.8484 36.8677 37.6664C36.4104 36.4571 35.8761 35.2963 35.2712 34.1957C35.2869 34.1769 35.3019 34.1583 35.3174 34.1395C38.5582 30.2401 39.8323 25.2972 42.2528 20.9328C42.2613 20.9174 42.2698 20.9022 42.2785 20.887C44.0346 17.7323 46.8565 15.351 49.978 13.615C49.9832 13.612 49.9887 13.6093 49.9939 13.6063C53.6949 17.1978 54.0426 23.5131 51.2608 29.4553Z" fill="#484848"/>
</svg>
