<svg width="90" height="90" viewBox="0 0 90 90" fill="none" xmlns="http://www.w3.org/2000/svg">
<path d="M88.6455 43.4004C88.5451 43.0738 88.3217 42.7989 88.0227 42.6338C84.2102 40.5285 79.4827 39.5765 74.2458 39.8429C75.2949 37.1162 75.9287 34.3185 76.1017 31.5531C76.4997 25.19 74.4283 19.749 70.2688 16.2323C66.1092 12.7158 60.3997 11.5785 54.1916 13.0296C49.814 14.0528 45.5541 16.2851 41.8152 19.4664C41.5732 19.1053 41.3216 18.7497 41.0585 18.4041C40.6988 17.9316 40.3272 17.4593 39.954 17.0002C37.5849 14.0838 34.9564 11.442 32.1418 9.14836C31.5775 8.68834 30.747 8.77307 30.2871 9.3375C29.8271 9.90194 29.9118 10.7325 30.4763 11.1922C33.1515 13.3724 35.6518 15.8857 37.9079 18.6629C38.2635 19.1006 38.6179 19.5509 38.9607 20.0013C39.2745 20.4135 39.5722 20.8394 39.8509 21.2748C39.6717 21.4527 39.4942 21.6334 39.3182 21.8159C39.3089 21.8255 39.2996 21.8354 39.2901 21.845C36.2568 24.9898 33.788 28.7024 32.1541 32.7589C32.0993 32.8945 32.0441 33.0298 31.991 33.1661C31.6268 33.0762 31.2622 32.9977 30.8973 32.9302L27.6522 28.9354C28.5233 27.5483 31.0038 23.0994 30.8626 17.6048C30.844 16.8769 30.2335 16.303 29.5109 16.3208C28.783 16.3394 28.208 16.9446 28.2268 17.6725C28.3307 21.7188 26.8042 25.0975 25.882 26.7567L21.1825 20.9719C22.1251 19.3523 23.9449 15.6182 23.8287 11.0907C23.8101 10.3628 23.204 9.78785 22.477 9.80666C21.7491 9.8253 21.1741 10.4305 21.1929 11.1584C21.2745 14.3351 20.1983 17.1144 19.3797 18.7529L14.8781 13.2114C14.419 12.6462 13.5886 12.5603 13.0238 13.0194C12.4587 13.4786 12.3727 14.3088 12.8319 14.8737L17.3368 20.4189C15.5718 20.886 12.6394 21.3692 9.52911 20.6346C8.82001 20.4671 8.11038 20.906 7.94303 21.6146C7.77569 22.3232 8.21444 23.0333 8.92302 23.2007C10.296 23.525 11.632 23.6496 12.8749 23.6496C15.6213 23.6496 17.9118 23.0414 19.1368 22.6347L23.8365 28.4193C22.0236 28.9823 18.4041 29.7844 14.4643 28.8538C13.7552 28.6863 13.0458 29.1252 12.8784 29.8338C12.7111 30.5423 13.1499 31.2525 13.8584 31.4197C15.3554 31.7732 16.8131 31.9092 18.1716 31.9092C21.6698 31.909 24.5011 31.0073 25.6066 30.5979L27.2565 32.6287C27.1726 32.6305 27.089 32.6345 27.0053 32.6375C24.9594 32.7108 22.9307 33.1536 21.0403 33.9407C18.3498 35.0608 15.9789 36.8566 14.0272 39.2291C13.8329 38.9981 13.6403 38.765 13.451 38.532C8.56636 32.5194 5.22686 25.826 3.79372 19.1756C2.47922 13.076 2.9352 7.44065 5.07217 3.23016C11.1693 1.58063 18.8917 3.3736 26.3637 8.19598C26.9752 8.59078 27.7914 8.415 28.1862 7.80311C28.581 7.19139 28.4052 6.37541 27.7933 5.98061C19.4528 0.598537 10.701 -1.26844 3.78106 0.859221C3.45446 0.959592 3.17989 1.18301 3.01465 1.48184C-2.48009 11.4314 0.969966 27.3507 11.4042 40.1945C11.7418 40.6102 12.0895 41.0244 12.4386 41.4301C11.5791 42.7939 10.8341 44.2976 10.2169 45.9283C7.79872 52.3174 7.63085 59.9223 9.74427 67.3425C11.8573 74.7619 16.0072 81.1366 21.429 85.2922C25.4786 88.3962 29.8841 89.9998 34.1991 89.9998C35.7849 89.9998 37.3583 89.7833 38.8976 89.3449C41.7194 88.541 44.2461 87.0416 46.3799 84.9473C49.5072 87.1237 53.0341 88.3433 56.6519 88.4813C62.0019 88.6855 66.9147 86.2499 70.98 82.9473C74.5759 80.026 77.7758 76.7602 80.4908 73.2407C80.9355 72.6641 80.8286 71.8362 80.2523 71.3916C79.6759 70.9471 78.8479 71.0538 78.4032 71.6302C75.8125 74.9886 72.7555 78.1077 69.3174 80.9009C65.6782 83.8579 61.5669 86.0303 56.7524 85.8465C53.7414 85.7315 50.791 84.7398 48.1446 82.964C49.3466 81.421 50.378 79.6504 51.2146 77.6769C53.5716 78.9492 57.6833 80.6683 62.6889 80.6683C63.5729 80.6683 64.5601 80.4064 64.532 79.3093C64.5133 78.5814 63.9092 78.0058 63.1802 78.0253C58.2216 78.1529 54.1007 76.2694 52.1353 75.1713C52.2772 74.7202 52.4087 74.2642 52.5293 73.8032L57.9579 69.3928C59.3299 70.2666 64.0227 72.9506 69.9017 72.9506C70.7638 72.9506 71.7133 72.6481 71.678 71.5925C71.6594 70.8646 71.0506 70.2914 70.3262 70.3085C65.7188 70.4269 61.8984 68.6333 60.1306 67.6274L66.6911 62.2978C68.3585 63.2791 72.2816 65.2337 77.0882 65.2337C77.9456 65.2337 78.8515 64.9062 78.824 63.8761C78.8054 63.1482 78.2007 62.5734 77.4723 62.592C73.8452 62.6855 70.6882 61.4138 68.904 60.4997L75.136 55.437C75.7011 54.9779 75.7871 54.1477 75.3279 53.5827C74.8688 53.0176 74.0386 52.9316 73.4736 53.3907L67.2378 58.4566C66.8027 56.8775 66.3235 54.348 66.6271 51.528C66.6645 51.4898 66.702 51.4517 66.7392 51.4136C69.277 48.8176 71.4314 45.8228 73.0465 42.57C78.1058 42.1056 82.6531 42.8342 86.2747 44.6894C88.0559 51.1984 86.2534 59.4657 81.2855 67.4786C80.9018 68.0973 81.0923 68.9101 81.7112 69.2935C82.3302 69.6772 83.1428 69.4865 83.5262 68.8678C89.0276 59.9957 90.8935 50.7129 88.6455 43.4004ZM34.5732 33.8087C36.2799 29.5661 39.0822 25.5771 42.4225 22.4594C42.4239 22.4582 42.425 22.4564 42.4264 22.4552C50.1603 15.2392 60.2459 12.9857 66.9606 17.0889C66.6995 17.2412 66.445 17.3939 66.1952 17.547C66.1759 17.5588 66.156 17.5707 66.1367 17.5825C61.6367 20.352 57.9584 24.1771 55.5631 28.9044C55.5597 28.9109 55.5567 28.9173 55.5534 28.9236C52.8743 34.2791 51.1872 40.1215 47.4327 44.8921C47.4186 44.91 47.4044 44.9281 47.3903 44.946C45.4286 41.9636 43.0677 39.3782 40.3975 37.3317C38.4984 35.8761 36.5209 34.7507 34.5113 33.9657C34.5321 33.9133 34.5521 33.8609 34.5732 33.8087ZM37.2366 87.0428C32.5904 88.0341 27.5845 86.6883 23.033 83.1996C18.0578 79.3862 14.239 73.4982 12.2799 66.62C9.63247 57.3247 10.9654 48.1347 15.142 42.1279C15.1562 42.1096 15.1715 42.0924 15.185 42.0732C16.9669 39.5281 19.2254 37.6255 21.7914 36.4889C21.7888 36.5266 21.7876 36.5629 21.7851 36.6007C21.2432 44.8246 24.239 52.6119 28.7612 59.3492C33.5479 66.4812 36.7729 74.5284 37.1744 83.1706C37.234 84.4603 37.253 85.7519 37.2366 87.0428ZM45.24 82.3127C45.2145 82.3409 45.1913 82.3706 45.1686 82.4006C43.64 84.0728 41.859 85.3606 39.8788 86.2058C39.8788 85.1186 39.8535 84.0312 39.7997 82.9452C39.5742 78.3923 38.7675 73.922 37.1783 69.6412C36.9099 68.918 36.6218 68.2023 36.3147 67.4949C34.8513 64.1213 32.9968 60.9307 30.9503 57.88C28.359 54.0174 25.8764 50.0117 24.9152 45.3953C24.252 42.2089 24.2104 38.922 24.5002 35.6896C24.5029 35.6604 24.5064 35.63 24.509 35.6008C24.5435 35.5933 24.5779 35.585 24.6124 35.5776C27.2164 35.0269 29.8993 35.2366 32.4302 36.0367C42.232 39.1354 48.4154 49.4643 50.2733 59.0458C52.0142 68.0237 50.0854 76.9389 45.24 82.3127ZM53.2987 69.7811C53.7005 66.5539 53.6281 63.1726 53.0807 59.7711C53.1898 59.7407 53.2987 59.708 53.4075 59.676C53.8851 59.5359 54.3583 59.3823 54.8273 59.2156C54.8304 63.1088 55.851 66.1936 56.2934 67.3483L53.2987 69.7811ZM58.4691 65.5812C57.9936 64.0976 57.3142 61.3383 57.496 58.1091C57.4997 58.0641 57.8853 57.9192 57.925 57.8995C59.4463 57.1456 60.9001 56.259 62.2783 55.2677C62.8346 54.8675 63.3776 54.4479 63.9074 54.0134C63.9983 56.7712 64.6204 59.0386 65.0294 60.2517L58.4691 65.5812ZM70.9765 40.7842C68.4554 46.169 64.3855 50.8816 59.3608 54.0719C57.4452 55.2883 55.3834 56.2859 53.2201 56.9765C53.1819 56.9886 52.5741 57.1829 52.5711 57.1737C52.1756 55.4688 51.6679 53.7901 51.0476 52.1534C50.4144 50.4791 49.6746 48.8718 48.837 47.3479C48.8588 47.3219 48.8795 47.2961 48.901 47.27C53.3883 41.8709 55.1524 35.0269 58.5039 28.9839C58.5157 28.9626 58.5274 28.9415 58.5394 28.9204C60.971 24.5524 64.8783 21.2553 69.2004 18.8515C69.2076 18.8474 69.2151 18.8436 69.2223 18.8395C74.3467 23.8124 74.8282 32.5566 70.9765 40.7842Z" fill="white"/>
</svg>
