<svg width="41" height="41" viewBox="0 0 41 41" fill="none" xmlns="http://www.w3.org/2000/svg">
<path d="M29.0417 3.41666H11.9583C7.24091 3.41666 3.41667 7.24089 3.41667 11.9583V29.0417C3.41667 33.7591 7.24091 37.5833 11.9583 37.5833H29.0417C33.7591 37.5833 37.5833 33.7591 37.5833 29.0417V11.9583C37.5833 7.24089 33.7591 3.41666 29.0417 3.41666Z" stroke="#484848" stroke-width="2" stroke-linecap="round" stroke-linejoin="round"/>
<path d="M27.3333 19.4237C27.5442 20.8455 27.3013 22.2975 26.6393 23.5733C25.9774 24.8491 24.93 25.8837 23.6461 26.5299C22.3623 27.1761 20.9073 27.401 19.4883 27.1726C18.0693 26.9443 16.7583 26.2743 15.742 25.258C14.7257 24.2417 14.0557 22.9307 13.8274 21.5117C13.599 20.0926 13.8239 18.6377 14.4701 17.3539C15.1163 16.07 16.1509 15.0226 17.4267 14.3607C18.7025 13.6987 20.1545 13.4558 21.5762 13.6667C23.0265 13.8817 24.3691 14.5575 25.4058 15.5942C26.4425 16.6309 27.1183 17.9735 27.3333 19.4237Z" stroke="#484848" stroke-width="2" stroke-linecap="round" stroke-linejoin="round"/>
<path d="M29.8958 11.1042H29.9137" stroke="#484848" stroke-width="2" stroke-linecap="round" stroke-linejoin="round"/>
</svg>
