<svg width="315" height="237" viewBox="0 0 315 237" fill="none" xmlns="http://www.w3.org/2000/svg">
<path fill-rule="evenodd" clip-rule="evenodd" d="M138.119 103.302C135.319 105.333 135.765 109.33 136.607 112.235C137.848 116.511 140.32 120.469 143.14 123.881C148.142 129.934 156.634 136.731 164.461 131.417C171.432 126.684 175.829 117.135 177.347 109.091C177.816 106.605 178.441 102.901 176.237 101.032C172.978 98.2693 167.231 98.7718 163.297 99.1275C160.707 99.3615 158.207 100.156 155.647 99.7834C149.699 98.9157 143.08 99.7016 138.119 103.302Z" fill="#A89C8B"/>
<path fill-rule="evenodd" clip-rule="evenodd" d="M258.713 134.979C253.042 142.18 243.401 143.317 234.838 143.247C229.696 143.204 224.544 142.817 219.503 141.768C216.785 141.202 214.086 140.453 211.46 139.553C209.725 138.958 207.143 138.661 206.405 136.801C204.458 131.892 205.891 125.736 206.692 120.754C207.1 118.22 207.407 115.671 207.803 113.134C208.057 111.512 208.178 109.716 208.858 108.198C209.653 106.42 210.658 106.775 212.34 107.266C214.658 107.944 217.038 108.225 219.421 108.589C225.237 109.478 230.311 111.271 235.597 113.812C240.823 116.324 245.893 118.804 250.555 122.298C252.917 124.068 254.952 125.989 256.848 128.246C258.313 129.989 260.499 132.71 258.713 134.979ZM233.924 166.963C233.878 167.738 224.991 165.397 223.821 165.135C216.147 163.412 208.321 161.449 201.076 158.336C194.314 155.431 188.355 152.106 183.034 146.944C180.554 144.537 178.323 142.003 176.188 139.305C175.118 137.952 173.656 138.109 172.463 136.965C171.39 135.935 170.567 135.13 170.902 133.591C173.584 134.298 178.536 138.744 181.316 136.499C182.901 135.219 180.703 133.882 179.688 133.141C177.781 131.746 176.15 130.026 174.634 128.22C177.237 128.725 179.66 129.701 181.926 131.06C182.932 131.663 186.383 133.852 187.186 131.766C187.68 130.481 185.341 128.867 184.611 128.157C182.82 126.412 180.887 124.376 179.936 122.03C182.287 121.484 184.503 123.303 186.104 124.785C187.881 126.429 190.06 128.156 191.55 130.051C192.319 131.029 192.486 132.183 193.087 133.237C193.762 134.424 194.843 135.44 195.877 136.318C197.867 138.009 200.195 139.255 202.585 140.285C208.045 142.638 213.898 144.304 219.718 145.472C222.574 146.045 225.359 146.309 228.257 146.406C230.51 146.482 231.507 147.156 232.367 149.234C234.694 154.855 234.271 161.039 233.924 166.963ZM167.084 124.13C165.782 125.35 164.09 126.115 162.729 127.287C161.531 128.319 160.149 129.42 158.812 130.255C157.385 131.145 156.319 130.521 155.034 129.715C153.525 128.769 151.791 128.386 150.237 127.54C144.865 124.613 138.293 117.442 139.296 110.857C139.721 108.066 141.163 105.32 143.78 104.054C146.157 102.904 149.613 102.266 152.156 103.227C153.59 103.77 154.617 104.967 155.536 106.143C156.608 107.515 157.018 107.299 158.11 105.976C160.063 103.609 163.284 101.532 166.468 101.582C168.05 101.607 169.622 101.941 171.048 102.599C171.241 102.688 171.348 102.958 171.542 103.049C171.78 103.161 172.172 102.928 172.337 103.033C172.755 103.297 173.171 104.124 173.412 104.543C174.378 106.225 176.117 109.524 174.364 110.941C174.363 110.941 174.442 112.857 174.418 113.076C174.295 114.218 173.9 115.162 173.391 116.207C171.864 119.348 169.61 121.765 167.084 124.13ZM169.681 150.698C168.447 151.082 167.119 147.212 168.302 146.594C169.43 146.005 170.798 150.351 169.681 150.698ZM150.305 146.071C149.878 147.533 149.697 149.192 148.652 150.381C147.696 149.245 147.601 147.148 148.529 145.98C149.059 145.314 150.772 144.473 150.305 146.071ZM189.783 120.457C189.776 120.494 191.268 121.208 190.54 121.989C189.546 123.055 189.682 120.979 189.783 120.457ZM195.946 108.542C195.929 110.021 192.803 109.664 192.825 108.177C192.853 106.347 195.964 106.976 195.946 108.542ZM192.215 96.1888C192.524 94.8354 197.961 92.9528 197.813 95.3114C197.739 96.494 191.558 99.0659 192.215 96.1888ZM136.473 142.084C135.863 142.817 134.998 143.106 134.267 143.67C133.501 144.26 132.953 145.025 132.284 145.718C130.447 147.62 128.235 149.182 126.252 150.929C122.607 154.141 119.116 157.594 115.075 160.317C107.854 165.184 99.4795 167.846 91.1663 170.177C90.4777 170.37 88.4938 171.15 87.8124 170.569C87.0775 169.943 87.4512 167.74 87.4851 166.907C87.6229 163.492 88.0206 160.036 87.9776 156.626C87.9597 155.226 87.5499 153.235 88.2801 151.953C89.0953 150.522 91.3712 150.103 92.7791 149.564C97.0582 147.927 101.18 145.165 104.96 142.608C109.607 139.463 114.3 136.266 119.081 133.331C123.766 130.455 128.934 128.53 134.16 126.887C134.402 127.396 131.908 129.035 131.623 129.265C130.256 130.367 128.769 131.509 127.754 132.963C127.035 133.993 126.298 136.323 128.282 136.382C129.244 136.411 130.666 135.48 131.538 135.179C132.978 134.681 134.462 134.332 135.969 134.105C134.674 135.533 130.283 138.097 131.082 140.471C131.857 142.775 136.34 140.087 137.883 140.087C137.63 140.89 136.994 141.457 136.473 142.084ZM83.5122 148.514C80.6413 149.525 77.6987 150.099 74.7356 150.752C71.9115 151.374 69.3009 151.843 66.4082 151.478C62.4142 150.976 57.9944 149.32 57.488 144.777C56.8876 139.394 60.6851 134.448 63.946 130.586C67.9145 125.888 72.3708 121.687 77.2004 117.884C82.0245 114.084 87.2313 110.735 92.6865 107.907C96.8365 105.755 101.524 104.449 105.912 102.834C106.746 102.527 109.056 101.448 109.836 102.342C110.467 103.066 109.609 104.271 109.321 104.942C108.76 106.252 108.683 107.57 108.538 108.975C107.891 115.254 107.112 121.53 106.754 127.835C106.654 129.592 106.478 131.43 106.581 133.189C106.637 134.162 107.143 135.403 106.806 136.354C106.158 138.182 103.19 139.392 101.617 140.208C98.8007 141.67 95.8187 142.76 92.9737 144.159C89.8492 145.694 86.807 147.354 83.5122 148.514ZM123.328 107.721C124.116 107.613 125.296 107.398 125.999 107.909C126.915 108.576 126.675 109.503 125.828 109.986C125.16 110.368 123.596 110.473 122.936 110.126C121.812 109.536 122.002 107.904 123.328 107.721ZM127.692 122.259C127.055 123.32 124.728 124.017 124.931 122.035C125.104 120.339 128.865 120.304 127.692 122.259ZM126.828 92.3497C127.852 92.7467 129.709 93.0865 130.013 94.4045C130.296 95.6315 129.134 95.5503 128.296 95.2127C127.607 94.9355 124.536 92.3286 126.828 92.3497ZM287.218 139.152C286.62 136.823 287.075 134.244 286.746 131.859C286.425 129.546 285.849 127.421 285.023 125.242C283.193 120.417 281.096 116.074 278.13 111.84C272.543 103.866 266.062 96.8425 258.235 91.0182C250.508 85.2686 241.951 80.5959 232.888 77.321C223.276 73.848 213.601 72.6392 203.466 71.9734C200.439 71.775 197.415 71.5393 194.405 71.1565C192.205 70.8768 189.448 70.5323 187.273 71.2068C185.907 71.6307 185.143 72.8235 186.632 73.6062C187.687 74.1612 189.069 74.2275 190.234 74.375C188.826 78.8525 186.536 83.3452 182.905 86.4282C179.361 89.4383 174.618 90.4701 170.145 91.2334C167.719 91.6472 165.003 91.9673 162.54 91.7888C160.983 91.6763 159.768 90.9545 159.139 92.5602C158.703 93.6758 158.497 94.8998 157.922 93.2154C157.242 91.224 156.909 91.2367 154.793 90.6711C150.468 89.5144 145.509 88.459 141.736 85.9576C137.821 83.3623 136.46 79.1638 134.274 75.2545C133.733 74.2883 132.103 72.3325 132.936 71.2254C133.698 70.2129 136.176 70.3138 137.31 70.2082C138.507 70.0967 139.712 70.092 140.913 70.0454C141.609 70.0184 143.009 70.304 142.729 69.2634C142.306 67.6952 137.781 67.8962 136.657 67.8707C134.567 67.8237 132.448 67.8722 130.369 68.1024C120.058 69.2438 109.655 71.3543 99.6775 74.1688C80.3198 79.6289 61.5717 89.6903 47.4446 104.185C33.8841 118.099 29.5879 141.252 37.9244 159.018C42.2567 168.25 51.6588 172.043 60.773 175.107C65.5803 176.722 70.6709 177.986 75.7812 177.681C78.2335 177.535 80.5604 176.874 82.9522 176.376C83.9952 176.158 85.1822 175.812 86.2536 175.899C87.0647 175.966 87.8438 176.711 88.6046 176.315C89.1445 176.034 89.3793 175.227 90.0391 174.883C90.8313 174.471 91.7919 174.322 92.6475 174.114C95.0258 173.536 97.3287 172.598 99.6534 171.829C102.057 171.034 104.326 170.01 106.632 168.974C107.797 168.451 110.492 166.325 111.251 167.879C111.597 168.589 111.45 169.957 111.534 170.701C111.682 172.002 111.855 173.301 112.045 174.597C112.463 177.449 112.963 180.29 113.475 183.128C114.401 188.247 115.593 193.148 117.586 197.964C119.178 201.809 120.575 206.168 123.53 209.227C124.821 210.562 126.581 211.163 128.431 210.743C130.536 210.266 131.584 208.352 132.862 206.804C135.673 203.399 140.315 200.79 144.601 199.851C149.849 198.701 154.962 200.383 159.971 201.813C165.27 203.325 170.665 204.766 175.866 206.584C180.713 208.279 185.947 210.781 191.203 210.564C195.787 210.374 200.068 206.639 203.374 203.793C206.695 200.934 210.846 196.748 215.62 197.085C217.991 197.252 220.151 198.396 222.46 198.862C224.995 199.373 227.693 199.445 230.27 199.636C233.47 199.872 240.629 199.037 241.813 195.183C241.989 194.612 241.99 193.435 241.236 193.206C240.542 192.996 240.188 193.808 239.53 193.77C238.193 193.695 237.148 191.361 236.414 190.458C233.449 186.81 229.383 184.09 226.056 180.794C222.3 177.074 219.093 172.566 216.263 168.12C217.542 167.788 218.923 168.34 220.161 168.603C221.666 168.922 223.132 169.308 224.615 169.716C226.249 170.167 227.907 170.476 229.566 170.82C230.803 171.076 232.446 171.153 233.563 171.774C234.538 172.317 235.082 172.9 236.293 173.057C237.524 173.217 238.788 173.082 240.025 173.074C243.37 173.051 246.708 172.989 250.038 172.635C261.802 171.384 274.273 166.403 281.347 156.517C283.271 153.828 284.821 150.849 285.801 147.688C286.565 145.221 287.883 141.743 287.218 139.152Z" fill="black"/>
<path fill-rule="evenodd" clip-rule="evenodd" d="M176.876 25.2528C179.968 25.2966 182.866 26.2143 185.747 27.2576C188.28 28.1749 190.981 29.0237 193.029 30.8547C196.714 34.1484 197.673 39.6021 198.276 44.268C199.029 50.0904 196.526 54.9753 194.419 60.2428C192.449 65.1693 188.833 69.1603 184.535 72.2014C182.283 73.7945 179.795 74.756 177.191 75.5992C174.546 76.4556 171.984 77.6025 169.155 77.5982C164.857 77.5919 159.356 75.5488 157.525 71.3107C156.692 69.3811 157.503 69.0347 159.171 70.0835C161.591 71.605 163.923 73.2469 166.75 73.9219C172.233 75.2312 178.8 73.2027 183.608 70.5263C188.414 67.8505 191.64 63.8311 193.797 58.8261C195.972 53.7769 196.818 48.8014 195.978 43.358C195.268 38.745 193.853 34.5313 189.7 32.0272C180.735 26.6221 168.657 27.0576 160.685 34.082C159.591 35.045 158.511 35.982 157.384 36.9015C156.668 37.486 155.824 38.1872 155.928 39.198C156.017 40.0635 157.861 43.4007 155.641 42.3756C153.841 41.5445 152.863 39.9197 150.683 39.7185C148.363 39.5043 145.595 41.2886 144.901 43.5343C144.239 45.677 145.42 48.6087 147.269 49.8377C148.414 50.5989 149.674 50.4813 150.974 50.4506C151.62 50.4353 153.416 50.2254 153.843 50.9084C154.599 52.1163 151.933 53.3859 151.073 53.6531C148.979 54.3033 146.505 53.5381 145.301 51.6673C144.078 49.7655 143.24 47.5643 143.072 45.2985C142.91 43.1276 143.403 40.9297 144.682 39.1472C146.043 37.2516 148.817 35.1264 151.304 35.7849C152.383 36.0707 153.25 37.187 154.309 37.3991C154.978 37.5327 154.697 37.6283 155.251 37.1322C155.602 36.8176 155.934 36.2368 156.259 35.8637C158.125 33.7188 159.971 31.4296 162.255 29.7128C166.351 26.6345 171.795 25.1805 176.876 25.2528ZM165.55 67.7791C166.034 66.6424 166.924 68.6701 167.187 69.0092C167.708 69.6799 168.933 70.2018 168.88 71.1911C168.793 72.8243 166.569 72.5214 165.828 71.6694C164.984 70.6994 165.072 68.9017 165.55 67.7791ZM181.35 60.0462C182.549 61.9177 181.087 63.938 180.139 65.5944C179.232 67.1782 178.389 68.9686 177.333 70.4575C175.581 72.9297 171.768 70.2554 171.654 67.7146C171.568 65.7696 172.944 66.6163 173.827 67.3427C174.737 68.0909 175.167 68.2772 176.121 67.46C178.038 65.8154 178.9 63.0655 180.225 60.9833C180.488 60.5704 180.964 60.3222 181.35 60.0462ZM184.77 60.648C185.079 61.5531 184.43 63.9513 186.234 63.7115C187.231 63.5791 187.444 62.1471 187.968 61.5221C189.731 59.4211 189.19 63.3949 188.73 64.3895C187.714 66.5815 184.873 68.0918 183.464 65.3109C182.94 64.2765 182.942 62.9709 183.209 61.8589C183.354 61.2532 184.199 58.9766 184.77 60.648ZM168.681 56.3614C168.521 57.4175 167.53 59.5214 168.74 60.2769C169.806 60.9419 171.661 59.4978 172.481 58.8948C173.333 58.2682 175.265 56.4707 175.341 58.7076C175.38 59.8478 174.239 61.2159 173.426 61.8728C171.69 63.2737 168.083 64.5302 166.804 61.8934C166.107 60.4571 166.488 58.4122 166.949 56.9648C167.322 55.7917 169.067 53.8107 168.681 56.3614ZM191.449 50.5798C192.155 51.401 193.829 53.2408 192.919 54.4102C191.855 55.7771 190.125 53.2692 189.443 52.5712C188.829 51.9424 187.537 50.1518 188.088 49.202C189 47.6303 190.828 49.8588 191.449 50.5798ZM180.345 47.0439C182.654 48.5497 179.618 49.634 178.303 49.7688C176.711 49.9313 174.676 50.0391 173.214 49.2573C171.142 48.1489 171.832 46.4748 173.841 46.074C175.901 45.6634 178.553 45.8751 180.345 47.0439ZM150.326 42.2502C152.024 42.581 153.964 43.0114 154.542 44.8646C155.139 46.7798 154.281 47.4154 152.547 46.9842C150.942 46.5852 148.545 46.1836 147.638 44.6145C146.554 42.7398 148.752 41.9439 150.326 42.2502Z" fill="black"/>
<path fill-rule="evenodd" clip-rule="evenodd" d="M56.8927 83.4026C56.3228 85.2447 53.4386 86.4665 52.0003 87.5863C46.9694 91.5041 42.0534 95.5832 37.5052 100.054C35.1445 102.375 33.3577 105.182 31.3106 107.764C30.8111 108.394 29.9263 109.805 28.9466 109.672C27.8718 109.527 27.6545 107.674 27.6888 106.865C27.8062 104.105 30.324 101.44 32.1196 99.5398C34.1394 97.4031 36.2988 95.3209 38.5042 93.3753C40.9323 91.2335 43.5672 89.3924 46.2523 87.5899C48.889 85.82 51.417 83.7752 54.159 82.1721C55.4507 81.417 57.5956 81.1297 56.8927 83.4026ZM232.75 65.9079C234.85 65.9741 236.899 66.6636 238.879 67.3037C243.236 68.7119 247.385 70.6654 251.476 72.7071C258.649 76.2859 265.552 80.6161 271.879 85.5395C273.202 86.5684 274.558 87.4021 275.996 88.2435C276.916 88.7825 278.229 89.4402 278.584 90.5386C279.484 93.331 274.938 90.5284 274.292 90.1274L273.385 89.564C259.922 81.212 246.475 73.097 231.247 68.3073C230.436 68.0521 230.184 67.3278 230.609 66.6098C231.071 65.8317 231.97 65.8833 232.75 65.9079ZM56.28 71.7519C56.1827 72.6021 55.2206 72.7955 54.5718 73.0684C52.1508 74.0864 49.6694 74.9545 47.255 75.9893C42.7738 77.9099 38.6585 80.6971 33.9812 82.1546C32.9123 82.4883 32.7546 81.4085 33.0407 80.6736C33.3595 79.8535 34.3167 79.2777 35.0091 78.8033C37.0064 77.4337 39.2715 76.449 41.4894 75.4977C43.6883 74.5538 45.9523 73.8398 48.2068 73.0486C50.3021 72.3131 52.7341 70.9442 54.9842 70.8431L55.0826 70.8383C55.7987 70.8021 56.3934 70.7537 56.28 71.7519ZM236.572 58.8358C234.431 58.233 236.454 56.8763 237.726 56.9716C239.146 57.078 240.518 57.7488 241.864 58.1535C245.979 59.3904 249.794 60.7432 253.639 62.6632C254.212 62.9498 256.738 64.3087 255.067 64.9104C253.909 65.3273 251.204 63.5386 250.21 63.1095C245.841 61.2237 241.146 60.1234 236.572 58.8358Z" fill="black"/>
<path fill-rule="evenodd" clip-rule="evenodd" d="M151.227 63.2276C151.495 62.4416 154.805 53.8499 153.509 53.5908C152.137 53.316 150.302 58.3009 149.904 59.2016C148.434 62.5279 147.564 66.0969 146.882 69.6648C146.406 72.1491 145.989 74.6941 146.155 77.2341C146.283 79.186 147.089 79.4815 148.416 80.6776C148.416 74.7487 149.316 68.8392 151.227 63.2276Z" fill="black"/>
</svg>
