<svg width="315" height="237" viewBox="0 0 315 237" fill="none" xmlns="http://www.w3.org/2000/svg">
<path fill-rule="evenodd" clip-rule="evenodd" d="M87.7336 139.998C89.1698 139.02 92.1068 135.516 93.6456 134.706C97.0672 132.906 112.31 129.366 112.806 129.157C113.561 128.839 118.464 127.726 121.321 127.023C128.03 125.372 152.073 114.707 158.409 111.973C159.218 114.101 165.897 123.499 164.751 124.462C160.979 127.632 154.218 131.58 149.849 133.852C146.315 135.69 142.572 137.211 138.793 138.452C134.503 139.862 131.558 141.374 127.282 142.816C123.076 144.235 128.103 148.673 130.263 149.59C132.686 150.619 136.44 151.141 138.915 152.033C134.556 158.808 130.895 167.031 130.163 175.146C129.987 177.1 128.498 178.89 126.076 178.305C124.826 178.004 113.296 176.468 111.416 176.039C98.864 173.177 76.3313 158.187 82.1338 142.816C83.4631 143.43 86.498 140.841 87.7336 139.998Z" fill="#A89C8B"/>
<path fill-rule="evenodd" clip-rule="evenodd" d="M94.7557 58.4473C95.6934 58.3682 98.1178 56.4951 96.8457 55.5478C95.5622 54.5919 94.6398 57.795 94.7557 58.4473ZM45.9104 65.631C46.1555 65.5878 46.0485 64.2464 45.6626 64.075C44.4446 63.5344 44.3417 65.5666 44.312 66.1105C44.275 66.7969 44.189 68.7302 45.6699 68.2002C46.5108 67.8993 45.9891 66.1455 45.9104 65.631ZM117.818 71.8972C117.784 73.0945 120.203 75.3968 121.105 74.0156C121.863 72.8554 117.88 69.514 117.818 71.8972ZM32.2998 44.895C33.0006 46.6826 36.4665 44.2463 36.5953 42.935C36.8597 40.2495 32.2636 43.1082 32.2998 44.895ZM61.2156 52.6025C62.8297 52.4699 64.9535 50.4179 66.5099 49.6512C67.5632 49.1325 70.4291 48.5142 70.7408 47.3365C71.0121 46.313 66.1494 48.5036 65.7342 48.6981C63.8266 49.5919 62.1066 50.6107 61.2156 52.6025ZM182.385 38.4521C183.672 37.4574 185.236 36.8157 186.885 36.8578C187.708 36.8788 189.426 37.394 189.491 35.9698C189.596 33.6538 182.323 36.4783 181.186 36.9326C181.586 37.4394 181.986 37.9458 182.385 38.4521ZM102.129 128.703C101.185 127.136 99.4873 126.23 98.2109 124.893C98.6786 127.088 97.6239 129.041 96.8992 131.045C98.6425 130.264 100.385 129.484 102.129 128.703ZM266.029 162.114C266.549 160.374 267.07 158.643 267.678 156.928C268.358 155.009 268.697 154.843 267.068 153.501C265.716 156.056 264.364 158.611 263.013 161.166C263.975 161.575 264.979 161.973 266.029 162.114ZM126.123 36.1034C124.333 34.086 115.945 33.9593 116.983 38.4119C117.345 39.9667 119.407 38.315 120.699 37.9527C121.981 37.5928 125.612 37.545 126.123 36.1034ZM125.815 64.6657C125.598 64.1509 125.165 62.2926 124.522 62.1461C123.896 62.0034 121.425 63.9525 120.96 64.25C118.643 65.7349 116.384 67.3322 114.126 68.9062C114.99 68.9062 115.775 68.5984 116.635 68.5918C117.656 68.5831 118.389 69.0025 119.384 68.7631C121.524 68.2495 124.007 65.8788 125.815 64.6657ZM128.134 18.6325C128.335 17.7097 138.822 20.4797 140.082 20.9869C140.769 21.2628 144.312 23.1045 143.55 20.3288C143.117 18.7479 139.023 17.5428 137.711 17.1095C134.376 16.0086 130.859 15.2255 127.307 15.4071C126.618 15.4421 121.395 15.7435 123.576 17.8429C124.327 18.5659 127.021 18.338 128.134 18.6325ZM130.429 145.415C132.383 146.376 134.378 147.111 136.42 147.863C137.328 148.197 138.741 149.071 139.742 148.852C140.562 148.671 140.824 147.423 141.255 146.587C142.829 143.53 144.71 141.064 147.041 138.544C145.958 137.754 140.464 141.237 139.104 141.751C137.743 142.265 136.459 142.784 135.127 143.399C133.872 143.978 131.397 144.495 130.429 145.415ZM165.025 119.355C167.873 118.067 170.572 115.782 172.907 113.736C175.589 111.387 177.993 108.925 179.956 105.885C178.774 105.945 176.166 109.745 176.137 105.608C176.122 103.498 179.014 101.42 179.912 99.4621C177.679 98.2017 175.633 105.734 173.071 103.908C170.603 102.149 174.497 96.1002 175.247 94.1916C173.799 93.2286 165.551 104.009 164.358 105.389C163.611 106.252 161.845 107.402 161.424 108.409C161.173 109.009 161.137 110.911 161.258 111.463C161.511 112.616 162.79 113.997 163.36 115.071C164.081 116.431 164.709 117.844 165.025 119.355ZM282.748 158.224C280.285 154.748 282.829 153.232 284.831 150.347C286.433 148.039 287.906 145.495 288.921 142.918C291.46 136.473 293.751 130.481 295.005 123.662C293.279 124.45 292.2 127.448 291.337 129.027C290.176 131.151 289.155 133.38 287.865 135.438C285.451 139.288 283.081 143.395 280.01 146.733C278.618 148.245 277.44 149.946 275.835 151.309C275.102 151.932 273.699 152.443 273.158 153.221C272.648 153.956 273.219 154.426 273.025 155.304C272.826 156.205 271.915 157.165 271.524 158.032C271.011 159.171 270.532 160.313 269.959 161.427C269.334 162.642 269.163 163.277 268.995 164.464C268.811 165.762 269.376 165.897 268.242 167.093C270.296 167.999 272.35 168.905 274.404 169.81C275.097 170.116 275.791 170.422 276.484 170.728C276.63 170.454 276.776 170.18 276.923 169.906C277.487 169.357 278.006 168.005 278.329 167.281C279.679 164.259 281.203 161.225 282.748 158.224ZM84.3855 143.632C78.5529 158.988 99.0492 171.918 111.666 174.778C113.414 175.173 115.119 175.692 116.859 176.117C118.755 176.581 120.44 176.489 122.333 176.683C123.839 176.837 124.557 178.001 125.976 178.321C128.348 178.857 128.203 177.075 128.373 175.165C129.093 167.067 133.226 159.254 137.6 152.497C135.602 151.782 133.622 151.002 131.65 150.219C129.962 149.549 127.377 147.666 125.563 147.566C124.221 147.493 122.176 148.639 120.873 149.142C118.702 149.979 116.525 150.693 114.263 151.264C110.307 152.263 105.905 153.624 101.811 153.727C100.631 153.757 97.3939 154.307 96.5446 153.578C94.9253 152.187 97.173 151.028 98.5286 150.531C106.608 147.573 115.187 146.315 123.289 143.281C127.458 141.72 131.585 139.977 135.78 138.439C139.397 137.113 143.185 135.94 146.68 134.309C151.296 132.156 155.932 129.475 159.928 126.315C160.728 125.683 162.405 124.744 162.953 123.828C163.436 123.021 163.375 123.826 163.275 122.848C163.203 122.145 162.344 121.193 161.99 120.53C160.673 118.055 159.483 115.514 158.482 112.896C152.106 115.63 146.041 119.352 139.759 122.275C133.436 125.216 126.304 127.292 119.54 128.947C116.661 129.651 113.351 129.874 110.711 131.266C109.589 131.857 108.48 132.541 107.278 132.883C106.924 133.564 106.574 133.697 106.23 133.283C106.014 133.041 105.736 132.939 105.394 132.977C104.659 133.101 103.909 133.448 103.222 133.715C99.743 135.064 96.4119 136.753 93.1091 138.476C91.5438 139.292 89.9381 140.096 88.44 141.028C87.637 141.528 86.9174 142.032 86.2604 142.718C85.4727 143.541 85.6602 144.218 84.3855 143.632ZM215.633 52.458C217.107 52.4819 218.451 51.6835 219.988 51.7279C222.405 51.7978 224.318 53.6718 225.721 55.479C228.497 59.0549 227.789 63.3687 226.395 67.3704C225.727 69.2828 224.811 71.1186 223.667 72.7927C222.654 74.2747 220.842 75.6765 220.135 77.3268C218.969 80.0482 221.322 78.891 222.762 78.3097C224.574 77.5783 226.272 76.6692 227.81 75.4446C234.662 69.9869 239.875 62.4007 241.622 53.6885C242.473 49.4378 242.408 44.4686 239.447 40.9992C236.74 37.8268 232.067 36.7903 228.072 37.3785C223.754 38.0148 219.841 39.8437 216.324 42.1981C215.303 42.8822 214.368 43.6289 213.409 44.394C212.151 45.3977 211.397 45.4241 211.712 46.9973C211.946 48.1668 212.583 49.3786 212.993 50.5008C213.761 52.6029 213.481 53.1467 215.633 52.458ZM220.333 88.6957L220.034 89.2052C222.09 89.3032 224.005 87.4895 225.757 86.604C228.033 85.4533 230.054 83.8835 232.048 82.2983C235.565 79.5023 239.127 76.3516 241.745 72.6812C247.613 64.4531 252.944 54.0216 251.342 43.5897C249.617 32.3465 239.783 28.0186 229.304 29.507C224.582 30.1777 220.366 32.286 216.14 34.4262C214.01 35.5053 212.212 36.905 210.261 38.26C209.248 38.9634 208.324 39.0547 208.258 40.2847C208.208 41.2116 209.81 43.3075 210.243 44.1474C215.55 38.7345 221.268 34.2565 229.281 33.9798C238.814 33.6507 244.451 42.6897 244.409 51.3454C244.368 59.834 240.707 67.9995 234.871 74.1001C232.218 76.8726 229.689 79.0973 226.432 81.1207C224.809 82.1295 223.611 83.0351 221.796 83.7048C220.512 84.1789 220.646 83.9291 220.318 85.1178C220.04 86.1265 220.324 87.6481 220.333 88.6957ZM168.533 204.024C168.409 205.554 168.098 207.06 167.752 208.552C167.627 209.088 166.928 210.78 167.05 211.382C167.253 212.378 166.983 211.738 167.856 212.257C168.766 212.799 169.825 212.766 170.821 212.931C171.436 213.033 173.69 214.093 174.069 213.926C174.731 213.633 174.71 212.601 175.437 212.192C176.428 211.634 177.887 212.112 178.822 212.548C181.32 213.713 183.036 216.125 185.453 217.446C189.745 219.79 194.839 221.088 199.628 221.623C202.222 221.913 204.877 222.422 207.439 221.815C209.457 221.335 212.081 221.38 213.179 219.214C203.427 216.532 188.542 213.25 184.687 202.059C182.591 203.959 179.088 202.936 176.555 202.673C173.768 202.385 171.278 202.452 168.729 201.182C168.543 202.18 168.486 203.009 168.533 204.024ZM82.1905 134.713C86.7811 134.99 91.1331 132.818 93.9581 129.152C94.6535 128.249 95.3665 127.328 95.7841 126.258C95.8746 125.987 95.9648 125.716 96.0554 125.445C96.4936 124.697 96.3017 124.343 95.48 124.386C95.0171 123.751 93.8434 123.537 94.1772 122.387C94.4287 121.518 95.3566 121.504 96.1632 121.231C95.7616 120.556 95.5214 120.217 94.9464 119.617C93.4521 120.961 90.7406 123.599 89.6906 120.511C89.1864 119.029 90.0741 117.612 89.8541 116.182C89.7635 115.591 89.0138 114.08 88.5794 113.727C86.2652 111.843 82.932 112.622 80.4767 113.731C78.7845 114.496 78.4204 114.854 78.1443 116.607C77.8639 118.388 77.6038 120.169 77.2928 121.946C78.3082 121.417 78.4933 120.274 79.1554 119.451C79.4035 119.902 79.6515 120.354 79.9004 120.806C80.2498 120.61 80.5763 120.62 80.8792 120.837C81.3692 121.591 81.0608 122.708 80.9102 123.498C82.5442 123.345 83.2348 125.168 81.5875 125.907C79.881 126.671 79.1114 124.586 79.0536 123.236C78.4169 123.996 77.763 123.589 77.3191 123.98C76.8757 124.371 76.701 125.185 76.5431 126.077C76.2838 127.542 75.6204 129.656 76.2342 131.126C77.1457 133.309 80.0518 134.445 82.1905 134.713ZM215.212 64.592C213.693 66.7043 211.103 69.4695 210.562 72.0216C212.235 71.0398 215.772 66.3157 216.683 70.0789C217.207 72.239 214.524 74.8128 213.864 76.9043C216.503 76.0363 218.382 73.3175 220.029 71.2192C222.128 68.544 224.271 65.0173 224.807 61.6154C225.24 58.8626 223.33 56.2968 220.493 56.0271C219.043 55.889 217.53 56.1191 216.13 56.4554C215.491 56.6083 214.539 56.7984 213.969 57.1406C213.253 57.5701 213.155 58.5762 212.481 57.7393C211.586 59.4272 210.69 61.1151 209.795 62.8026C210.686 62.4792 212.504 61.1066 213.478 61.2485C214.901 61.4561 215.193 63.522 215.212 64.592ZM72.9915 23.2695C69.0093 23.3869 64.847 24.2349 61.0772 25.4954C60.141 25.8087 56.1916 26.923 57.0233 28.5383C57.573 29.6059 60.537 28.0972 61.433 27.8456C65.2732 26.7672 69.2274 26.056 73.1608 25.407C74.1134 25.2499 77.3443 25.2654 77.511 24.017C77.7152 22.4936 74.116 23.2678 72.9915 23.2695ZM181.369 197.018C179.211 197.282 177.138 197.183 174.977 196.919C173.159 196.697 171.308 195.952 169.499 195.952C169.499 197.889 169.367 197.901 171.41 198.315C172.836 198.605 174.283 198.767 175.724 198.969C178.262 199.324 181.079 200.32 183.647 199.808C183.585 199.472 183.388 197.202 183.122 196.978C182.972 196.852 181.587 197.02 181.369 197.018ZM146.484 53.7337C147.088 54.1183 148.475 55.6516 149.194 55.6787C148.937 53.9034 146.957 50.8124 144.682 51.9095C144.125 52.1786 142.954 53.518 143.484 54.109C143.766 54.4249 145.745 53.7358 146.484 53.7337ZM125.44 69.5266C125.462 69.2173 125.485 68.908 125.508 68.5986C124.673 69.0894 123.64 69.3216 123.047 70.1122C123.759 70.4277 124.47 70.7437 125.183 71.0596C125.269 70.5486 125.354 70.0376 125.44 69.5266ZM191.171 116.659C195.114 118.04 198.729 119.885 201.632 123.015C204.141 125.722 205.32 130.493 205.932 134.041C207.448 142.822 204.524 150.961 202.595 159.362C201.617 163.623 200.157 167.724 198.79 171.875C197.596 175.5 196.572 179.297 194.924 182.744C193.527 185.666 191.742 188.548 190.512 191.58C189.851 193.211 188.779 198.811 186.268 197.052C185.583 198.843 185.417 198.691 186.149 199.935C186.679 200.836 188.477 202.087 189.326 202.82C191.587 204.775 194.451 206.386 197.104 207.755C201.962 210.263 207.17 212.139 212.174 214.425C214.386 215.436 216.784 216.631 216.288 219.525C215.872 221.95 214.468 223.79 212.279 224.869C210.224 225.883 207.284 226.665 205.023 226.983C203.681 227.172 203.373 226.614 202.28 226.421C201.062 226.206 199.642 226.621 198.386 226.61C192.748 226.561 187.813 225.143 183.257 221.873C181.629 220.705 179.232 217.536 177.102 217.536C176.013 217.536 176.243 218.198 175.285 218.586C174.103 219.065 172.066 218.161 170.904 217.949C168.428 217.497 165.91 217.038 164.261 214.905C162.478 212.601 163.112 209.746 163.878 207.186C164.741 204.301 166.194 201.374 166.812 198.445C166.962 197.733 167.1 196.405 166.948 195.68C166.71 194.556 165.575 193.885 165.541 192.667C165.53 192.297 166.06 191.808 166.153 191.426C166.358 190.586 166.326 189.715 166.41 188.86C166.561 187.336 166.909 185.875 167.148 184.368C167.694 180.94 168.769 177.882 169.809 174.578C170.819 171.372 171.78 168.986 173.732 166.211C174.743 164.773 178.123 159.651 176.472 158.177C174.213 162.615 171.571 166.076 168.113 169.61C165.468 172.312 162.882 175.945 159.572 177.87C155.932 179.986 151.485 181.232 147.466 182.351C145.554 182.882 143.968 184.063 141.908 184.281C139.674 184.517 137.401 184.238 135.214 183.74C134.598 183.6 132.822 182.654 132.265 182.715C131.444 182.804 130.264 184.267 129.363 184.535C127.171 185.189 125.674 183.94 124.011 182.785C122.206 181.532 121.66 181.221 119.577 181.07C117.027 180.886 114.546 179.986 112.037 179.436C107.626 178.468 103.876 176.507 99.8668 174.454C95.2706 172.101 91.3392 168.855 87.8749 165.022C82.7822 159.386 75.6899 143.769 84.0089 138.301C79.1115 137.636 74.626 135.498 74.0291 129.954C73.7172 127.054 74.3043 123.841 75.0336 121.045C75.3665 119.768 75.7634 118.5 76.1437 117.236C76.43 116.81 76.5816 116.343 76.5974 115.835C76.7731 115.178 76.5197 114.85 75.8373 114.853C74.5474 113.345 73.5775 112.014 73.3168 109.872C73.2348 109.194 73.1613 108.153 73.6441 107.576C73.8676 107.344 74.1372 107.189 74.4521 107.111C75.2079 107.155 75.4216 106.782 75.093 105.995C75.46 104.878 74.9157 104.009 76.2988 103.543C76.7423 103.637 77.1837 103.741 77.6233 103.852C78.1843 104.108 78.5492 103.923 78.7189 103.298C80.022 102.788 79.4209 102.034 81.1915 102.69C82.2631 103.087 83.2826 103.771 84.0628 104.604C85.0417 103.976 82.8156 100.092 82.7412 98.8527C82.5652 95.932 83.7727 93.5171 85.3437 91.1179C88.3975 86.4559 92.6599 82.4469 96.863 78.8399C104.914 71.9321 113.372 65.3557 122.463 59.8522C118.713 57.2476 114.331 56.5416 109.869 57.7521C105.755 58.8681 102.421 60.8948 98.6337 62.6678C95.1257 64.3097 91.4021 64.9841 90.2834 60.5036C89.0303 55.4849 93.0287 53.6218 96.6152 51.3713C95.7197 50.7033 92.7715 51.1808 91.6563 51.2598C89.1725 51.4354 86.7973 51.9962 84.3837 52.4921C83.2262 52.7296 82.1627 52.6762 81.0159 52.9089C79.3111 53.2549 77.531 53.6427 75.8061 54.1356C71.7026 55.3094 67.6294 57.0905 64.0834 59.4905C61.0186 61.5637 58.8925 64.4912 56.4233 67.1876C53.6071 70.262 50.9089 73.2869 46.734 74.4124C44.7792 74.9394 42.486 75.4178 41.1 73.6717C39.8105 72.0483 39.7387 70.0916 39.781 68.1064C39.8741 63.7215 41.9925 58.983 44.4566 55.3999C47.1314 51.5106 50.7136 49.2831 54.0985 46.1523C49.2062 46.5021 44.478 49.0811 39.9788 50.8635C39.032 51.2389 38.0761 51.6605 37.1242 52.0077C36.109 52.378 35.4365 52.1512 34.464 52.3208C32.2443 52.7082 30.3378 53.6436 28.1788 52.1521C24.094 49.331 28.1865 43.5917 30.9988 41.8307C34.916 39.3782 38.9012 37.313 43.2167 35.5636C40.8803 33.0294 42.8757 29.413 45.0292 27.6153C47.7539 25.3404 51.2234 24.0368 54.5065 22.8191C57.1031 21.856 59.653 20.9312 62.3504 20.3516C65.1858 19.7426 68.5015 18.8119 71.3787 18.9011C74.077 18.9848 76.4697 18.5095 79.2025 18.4334C81.4765 18.3702 83.7556 18.4249 86.0291 18.3659C92.1464 18.2079 98.2863 18.6205 104.265 19.0604C99.5279 5.2089 130.729 9.48652 137.385 11.2958C143.435 12.9402 150.366 14.8477 155.447 18.7495C157.6 20.402 159.644 22.2809 161.554 24.209C164.372 27.0536 165.932 30.7789 167.422 34.456C171.203 32.604 174.817 30.5859 178.954 29.6676C182.89 28.7941 186.922 27.6101 190.881 26.9502C193.891 26.4484 198.26 26.1079 200.793 28.2333C203.544 30.5419 204.978 34.1344 206.62 37.211C214.508 29.7269 223.305 24.2671 234.551 24.6301C245.555 24.9855 252.791 34.4881 254.125 44.7855C255.594 56.132 250.54 67.9885 243.689 76.7752C240.617 80.7158 237.438 84.5215 233.303 87.4614C231.252 88.9187 229.089 90.5153 226.841 91.6531C225.719 92.2203 224.494 92.7329 223.316 93.1694C222.785 93.3663 222.238 93.5641 221.686 93.6977C220.108 94.0804 220.415 93.5696 219.828 94.9505C219.352 96.0717 219.411 98.0006 219.207 99.2311C218.974 100.638 218.836 102.063 218.495 103.451C217.906 105.855 217.293 108.201 216.555 110.549C215.158 114.994 213.278 119.473 210.975 123.527C212.928 124.375 215.663 124.46 217.75 124.717C220.009 124.995 222.271 125.58 224.617 126.236C229.319 127.551 233.521 128.66 237.992 130.628C242.633 132.672 246.77 135.723 251.239 138.151C255.349 140.384 259.504 143.181 263.32 145.861C264.228 146.499 264.791 147.053 265.514 147.861C266.253 148.686 266.489 148.848 267.372 149.563C267.771 149.885 268.93 151.51 269.385 151.57C270.199 151.678 270.074 151.07 270.714 150.221C272.05 148.448 273.912 147.075 275.239 145.258C276.345 143.742 277.499 142.208 278.681 140.904C281.542 137.751 283.913 134.255 285.947 130.474C287.006 128.506 288.121 126.633 289.271 124.775C290.415 122.926 292.451 120.485 294.73 120.594C294.547 119.652 293.964 119.495 294.969 118.92C295.617 118.549 296.877 119.146 297.376 119.523C298.696 120.521 298.755 122.457 298.671 123.911C298.457 127.658 297.673 131.357 296.58 134.9C295.266 139.159 293.62 142.917 291.823 146.982C290.393 150.22 288.617 154.502 285.057 155.98C287.448 159.393 286.3 162.175 284.702 165.798C283.534 168.447 281.992 171.185 279.643 172.938C276.994 174.914 274.122 173.238 271.353 171.931C269.68 171.142 264.565 169.28 265.605 166.852C264.327 166.682 263.523 165.754 262.36 165.468C261.129 165.165 261.34 165.666 260.038 165.853C259.039 165.997 257.544 165.102 256.604 164.782C255.033 164.247 253.467 163.699 251.898 163.159C247.482 161.638 243.14 160.141 238.681 158.922C230.384 156.655 221.984 155.369 213.716 153.344C212.058 152.939 210.41 152.547 208.684 152.222C208.328 152.155 206.479 152.052 206.255 151.67C205.861 151.002 207.071 147.261 207.174 146.499C207.856 141.495 207.633 136.016 206.673 131.069C206.275 129.013 204.494 126.349 204.509 124.342C204.52 122.995 205.713 121.525 206.414 120.305C208.147 117.289 209.963 114.03 211.247 110.891C213.212 106.089 214.416 100.669 215.285 95.5258C215.737 92.8448 216.263 89.9382 216.386 87.226C216.48 85.1587 216.31 82.9902 216.61 80.873C215.466 80.9815 213.847 81.5743 212.817 80.9396C211.515 80.1388 211.166 77.8524 211.332 76.4869C206.876 77.2647 207.024 73.0387 207.3 69.7341C199.246 69.7341 209.56 57.7666 210.849 55.1966C211.441 54.0152 211.423 55.3423 211.162 53.515C211.047 52.7116 210.498 51.8215 210.187 51.083C209.51 49.4706 208.778 47.883 207.997 46.3189C206.346 43.0151 204.475 39.8228 202.433 36.745C200.596 38.0255 198.939 39.5413 197.404 41.1678C198.389 38.5931 201.397 35.4034 200.11 32.4797C198.918 29.7697 194.935 29.9576 192.583 30.4531C186.192 31.8006 180.062 33.7632 173.974 36.0355C175.86 37.117 178.747 36.2815 180.621 35.4546C182.942 34.4304 185.437 33.3558 187.938 32.8133C190.119 32.3401 192.983 32.5015 192.353 35.4393C191.842 37.8196 189.514 40.112 187.978 41.8918C184.593 45.8132 180.349 48.8487 176.18 51.8817C171.699 55.1424 167.381 58.6849 162.843 61.8507C154.639 67.5742 145.819 72.5484 137.344 77.8908C132.939 80.6667 127.949 82.9006 123.173 84.958C117.919 87.2213 112.881 89.6444 107.43 91.4319C104.403 92.4249 101.402 93.242 98.4277 94.3717C96.5631 95.0795 93.3162 96.498 92.0844 94.3961C89.5823 90.127 98.6367 84.5125 101.118 81.9024C102.829 83.5647 94.3887 89.7593 95.0493 92.1798C95.5684 94.0817 97.5762 91.6258 98.5456 91.1072C100.112 90.2692 101.968 89.8481 103.543 88.8922C106.772 86.9313 110.602 84.6701 111.339 80.6167C110.826 80.0751 110.832 79.5754 111.358 79.1171C111.592 78.8386 111.778 78.5328 111.915 78.1992C112.145 77.5624 112.237 76.7645 112.36 76.0892C112.724 74.0929 111.811 72.2238 112.664 70.2701C107.687 74.0416 102.902 78.3017 98.1773 82.3846C93.9392 86.0467 89.5169 90.842 87.9595 96.3066C87.76 97.0066 87.4284 97.8011 87.4647 98.54C87.5357 99.9905 87.6805 99.6779 88.8491 100.144C90.0181 100.611 91.7199 100.571 92.977 100.62C93.6935 100.648 96.8934 99.8893 96.2572 101.462C95.8906 102.368 93.6722 102.334 92.8779 102.417C90.8846 102.628 89.8036 102.412 90.7479 104.573C91.1713 105.541 92.0289 106.197 92.7018 106.947C94.5741 109.032 95.591 112.23 97.0639 114.68C98.7422 117.471 100.587 120.125 102.547 122.724C103.355 123.797 104.436 125.813 105.558 126.578C106.604 127.293 105.373 127.234 107.112 126.943C107.87 126.817 108.557 126.324 109.282 126.147C113.617 125.091 118.073 123.901 122.556 122.597C128.291 120.93 134.309 119.508 139.78 117.107C144.681 114.955 149.546 112.393 154.499 110.214C155.945 109.578 157.39 109.157 158.514 107.986C159.871 106.573 160.994 104.724 162.246 103.205C164.374 100.623 166.336 97.9954 168.627 95.5476C170.332 93.7264 173.354 90.3406 175.76 89.6136C180.331 88.2327 177.884 95.1957 177.293 96.9554C178.368 97.1993 178.933 95.821 180.194 96.2173C181.704 96.6923 181.861 98.7006 182.049 99.9589C182.099 100.294 181.646 100.921 181.784 101.22C181.831 101.322 182.816 101.904 183.006 102.174C183.696 103.155 183.56 104.348 183.299 105.406C181.946 110.886 177.138 114.888 173.601 118.93C175.183 118.631 176.356 117.729 177.849 117.283C179.251 116.863 180.66 116.885 182.073 116.765C183.553 116.639 184.974 116.085 186.487 116.057C188.075 116.028 189.596 116.48 191.171 116.659Z" fill="black"/>
<path fill-rule="evenodd" clip-rule="evenodd" d="M23.9131 67.3682C23.041 67.9382 22.7952 68.4975 22.7651 69.8125C22.753 70.3519 22.7902 72.364 23.544 72.2879C24.2514 72.2167 23.9131 68.06 23.9131 67.3682ZM19.4081 70.6453C19.8145 66.4305 21.3565 62.1452 24.9838 59.519C25.8809 58.8696 26.8957 58.8926 27.8789 58.4829C28.4697 58.2367 29.4033 57.0924 30.0741 57.2279C32.5435 57.7274 29.6906 61.0086 29.2728 61.8717C27.9782 64.5457 28.0656 66.8954 28.1042 69.7801C28.1337 71.9725 28.5892 75.6686 27.4839 77.653C26.3057 79.7659 23.7502 78.3939 22.3238 77.1432C20.5235 75.5643 19.1639 73.0502 19.4081 70.6453Z" fill="black"/>
<path fill-rule="evenodd" clip-rule="evenodd" d="M62.7569 83.1002C62.7569 85.4521 64.6658 83.8599 64.5976 82.1871C64.4978 79.7241 62.6679 81.2407 62.7569 83.1002ZM72.9051 70.0985C70.8158 71.9775 69.2043 73.0317 68.8016 75.9209C68.4968 78.1093 68.7999 80.2768 68.8128 82.4811C68.8347 86.1762 65.8508 90.0609 62.6398 85.8253C60.2976 82.7358 61.1377 77.8778 63.0476 74.7729C64.05 73.1439 65.4807 71.5324 67.1335 70.5171C68.3766 69.7531 71.8735 68.2499 72.9051 70.0985Z" fill="black"/>
<path fill-rule="evenodd" clip-rule="evenodd" d="M43.7282 127.046C43.4859 127.619 42.9174 129.959 44.0774 129.429C45.1017 128.962 44.4381 127.411 43.7282 127.046ZM37.5982 119.822C37.4191 118.942 37.492 113.427 39.0113 113.84C40.2046 114.165 40.4017 116.988 40.8878 117.971C42.6981 121.63 46.8531 123.908 48.2859 127.685C49.8853 131.902 45.05 132.033 42.4842 130.325C39.4462 128.303 37.6883 123.352 37.5982 119.822Z" fill="black"/>
<path fill-rule="evenodd" clip-rule="evenodd" d="M33.8737 97.207C34.5331 96.3168 34.5998 95.8412 34.2239 95.0537C33.7435 95.5763 33.8288 96.3231 33.8737 97.207ZM34.3508 101.189C30.9137 101.574 30.7416 95.2397 31.3303 93.0649C31.799 91.3329 32.8068 89.4717 33.8442 88.0603C34.0538 87.7756 36.0411 85.2164 36.4306 85.2102C37.9255 85.1867 37.5147 86.8757 37.3535 87.5046C36.8456 89.4854 36.6444 91.1412 36.781 93.3377C36.9277 95.6878 38.0405 101.267 34.3508 101.189Z" fill="black"/>
<path fill-rule="evenodd" clip-rule="evenodd" d="M190.415 46.3327C185.5 50.4544 180.834 54.9167 175.49 58.522C172.875 60.2864 170.141 61.8474 167.532 63.6405C166.203 64.5538 164.847 65.3714 163.372 66.0428C162.07 66.6358 161.218 66.7129 162.299 65.3053C163.021 64.3649 164.64 63.7095 165.624 63.0411C167.139 62.0117 168.569 60.8697 170.162 59.9564C172.97 58.3454 175.76 57.0449 178.349 55.0692C180.646 53.3163 183.017 51.6045 185.209 49.7415C186.15 48.9425 189.267 45.2745 190.415 46.3327Z" fill="black"/>
<path fill-rule="evenodd" clip-rule="evenodd" d="M190.514 61.2158C192.725 63.1066 187.195 68.2861 185.933 69.4601C184.604 70.6981 183.139 71.8024 181.693 72.8993C181.183 73.2855 178.406 75.8705 177.701 75.6619C176.31 75.25 178.136 73.573 178.611 73.1356C180.147 71.7195 181.716 70.3449 183.217 68.8907C184.572 67.5802 186.039 66.3665 187.348 65.0137C188.41 63.9177 189.301 62.0604 190.514 61.2158Z" fill="black"/>
<path fill-rule="evenodd" clip-rule="evenodd" d="M26.7625 137.43C26.1854 136.093 25.1519 137.577 25.6758 138.245C26.1714 138.877 26.6887 137.687 26.7625 137.43ZM23.3787 134.789C23.6881 132.823 24.4031 131.73 26.2477 133.409C27.5152 134.562 30.0645 137.841 29.8226 139.629C29.5051 141.974 26.9223 141.309 25.5834 140.083C24.211 138.826 23.6051 136.533 23.3787 134.789Z" fill="black"/>
<path fill-rule="evenodd" clip-rule="evenodd" d="M27.421 173.488C25.1613 173.316 23.2334 171.582 22.2738 169.548C21.4664 167.839 20.7022 165.083 23.5388 165.981C25.3875 166.567 32.5142 173.764 27.421 173.488Z" fill="black"/>
<path fill-rule="evenodd" clip-rule="evenodd" d="M54.8062 162.342C53.06 162.74 51.3326 161.589 50.2587 160.292C49.5907 159.485 48.0355 156.653 48.819 155.488C49.9111 153.862 51.5601 157.13 52.1288 157.777C53.021 158.789 55.9382 160.727 54.8062 162.342Z" fill="black"/>
<path fill-rule="evenodd" clip-rule="evenodd" d="M56.379 118.125C55.0103 117.49 53.7394 116.725 53.189 115.208C52.8388 114.242 52.5449 111.344 54.0994 111.357C55.8976 111.373 60.0154 117.835 56.379 118.125Z" fill="black"/>
<path fill-rule="evenodd" clip-rule="evenodd" d="M46.7821 87.9793C48.615 87.9462 49.0489 88.957 49.3038 90.4094C49.4768 91.395 50.3164 94.741 49.4444 95.4263C48.1986 96.4058 46.2168 94.1616 45.8162 93.2806C44.9904 91.467 46.1322 89.683 46.7821 87.9793Z" fill="black"/>
<path fill-rule="evenodd" clip-rule="evenodd" d="M78.2756 188.304C79.1681 188.71 81.1984 189.611 80.4225 191.008C79.6114 192.469 77.2825 191.049 76.4125 190.41C76.0483 190.143 73.7343 188.393 73.8311 187.807C74.0352 186.56 77.2249 188.187 78.2756 188.304Z" fill="black"/>
<path fill-rule="evenodd" clip-rule="evenodd" d="M19.4803 97.0556C20.0901 98.5828 20.7766 103.829 17.5653 100.996C16.5853 100.131 16.4374 99.0515 16.7751 97.8645C17.2633 96.1441 17.9738 96.4852 19.4803 97.0556Z" fill="black"/>
<path fill-rule="evenodd" clip-rule="evenodd" d="M189.658 77.5195C188.946 76.0667 190.702 75.1296 191.64 74.1934C192.253 73.5817 194.828 70.2646 195.673 70.452C197.41 70.8375 190.512 76.8716 189.658 77.5195Z" fill="black"/>
<path fill-rule="evenodd" clip-rule="evenodd" d="M46.759 182.751C48.4346 182.482 48.8255 184.343 49.9051 185.155C50.368 185.503 51.9572 185.809 51.6375 186.547C50.7976 188.487 46.6769 184.055 46.759 182.751Z" fill="black"/>
<path fill-rule="evenodd" clip-rule="evenodd" d="M60.9082 138.795C62.0599 138.312 65.384 140.902 64.4296 142.021C63.0029 143.695 60.9895 139.71 60.9082 138.795Z" fill="black"/>
<path fill-rule="evenodd" clip-rule="evenodd" d="M85.1845 176.26C84.3449 176.344 80.8022 175.23 82.1147 173.739C83.0363 172.692 85.4857 175.312 85.1845 176.26Z" fill="black"/>
<path fill-rule="evenodd" clip-rule="evenodd" d="M42.7588 169.106C41.9253 169.439 38.9193 168.754 39.8645 167.448C40.7648 166.205 42.76 168.074 42.7588 169.106Z" fill="black"/>
<path fill-rule="evenodd" clip-rule="evenodd" d="M67.3682 174.738C68.3426 174.637 69.0465 175.224 69.2139 176.219C67.9952 176.393 67.6192 176.103 67.3682 174.738Z" fill="black"/>
<path fill-rule="evenodd" clip-rule="evenodd" d="M194.106 30.2974C194.518 30.2992 194.929 30.3014 195.337 30.3032C194.925 30.3011 194.516 30.2992 194.106 30.2974Z" fill="black"/>
<path fill-rule="evenodd" clip-rule="evenodd" d="M187.646 115.97C187.031 115.971 186.416 115.972 185.801 115.973C186.416 115.972 187.032 115.971 187.646 115.97Z" fill="black"/>
<path fill-rule="evenodd" clip-rule="evenodd" d="M103.71 15.6885C103.681 16.3044 103.653 16.9204 103.624 17.5342C103.652 16.9177 103.681 16.3028 103.71 15.6885Z" fill="black"/>
<path fill-rule="evenodd" clip-rule="evenodd" d="M294.33 120.278C294.526 120.963 294.239 121.076 293.467 120.618C293.754 120.505 294.042 120.392 294.33 120.278Z" fill="black"/>
<path fill-rule="evenodd" clip-rule="evenodd" d="M276.855 173.955C277.164 173.956 277.473 173.959 277.778 173.96C277.469 173.959 277.162 173.956 276.855 173.955Z" fill="black"/>
<path fill-rule="evenodd" clip-rule="evenodd" d="M218.408 124.439C217.892 124.832 217.379 124.887 216.87 124.418C217.383 124.425 217.896 124.432 218.408 124.439Z" fill="black"/>
<path fill-rule="evenodd" clip-rule="evenodd" d="M206.892 71.9824C206.879 72.496 206.866 73.009 206.853 73.5205C206.866 73.0064 206.879 72.4944 206.892 71.9824Z" fill="black"/>
<path fill-rule="evenodd" clip-rule="evenodd" d="M233.481 24.5169C232.969 24.5166 232.456 24.516 231.943 24.5154C232.457 24.3234 232.969 24.3865 233.481 24.5169Z" fill="black"/>
<path fill-rule="evenodd" clip-rule="evenodd" d="M83.0566 18.2581C82.5441 18.2882 82.0311 18.3183 81.5186 18.3485C82.0311 18.3183 82.5441 18.2882 83.0566 18.2581Z" fill="black"/>
<path fill-rule="evenodd" clip-rule="evenodd" d="M95.6689 18.3556C95.2588 18.3208 94.8483 18.2857 94.4385 18.251C94.8483 18.2857 95.2584 18.3208 95.6689 18.3556Z" fill="black"/>
<path fill-rule="evenodd" clip-rule="evenodd" d="M102.437 18.843C102.027 18.9959 101.617 19.0863 101.206 18.8452C101.617 18.8446 102.027 18.8436 102.437 18.843Z" fill="black"/>
<path fill-rule="evenodd" clip-rule="evenodd" d="M65.8301 19.6853C65.317 19.7896 64.8045 19.8939 64.292 19.9972C64.805 19.8939 65.3176 19.7896 65.8301 19.6853Z" fill="black"/>
<path fill-rule="evenodd" clip-rule="evenodd" d="M207.201 144.888C207.187 145.196 207.173 145.504 207.159 145.811C207.174 145.502 207.187 145.195 207.201 144.888Z" fill="black"/>
<path fill-rule="evenodd" clip-rule="evenodd" d="M37.6743 119.971C37.6805 120.176 37.6863 120.382 37.6919 120.586C37.6854 120.38 37.6802 120.175 37.6743 119.971Z" fill="black"/>
<path fill-rule="evenodd" clip-rule="evenodd" d="M296.235 118.867L294.697 118.875C295.209 118.493 295.722 118.542 296.235 118.867Z" fill="black"/>
<path fill-rule="evenodd" clip-rule="evenodd" d="M191.03 116.688C190.62 116.621 190.21 116.553 189.8 116.485C190.21 116.553 190.62 116.621 191.03 116.688Z" fill="black"/>
<path fill-rule="evenodd" clip-rule="evenodd" d="M78.4424 188.258C77.9295 188.158 77.4172 188.058 76.9043 187.958L78.4424 188.258Z" fill="black"/>
<path fill-rule="evenodd" clip-rule="evenodd" d="M181.97 99.9756C181.96 99.6676 181.951 99.3596 181.941 99.0527C181.951 99.3607 181.96 99.6683 181.97 99.9756Z" fill="black"/>
<path fill-rule="evenodd" clip-rule="evenodd" d="M84.5947 18.3598C84.287 18.322 83.9793 18.2842 83.6719 18.2463C83.9793 18.2842 84.287 18.322 84.5947 18.3598Z" fill="black"/>
<path fill-rule="evenodd" clip-rule="evenodd" d="M135.044 10.7525C134.736 10.6593 134.428 10.5661 134.121 10.4729C134.429 10.5661 134.736 10.6593 135.044 10.7525Z" fill="black"/>
<path fill-rule="evenodd" clip-rule="evenodd" d="M171.65 218.236C171.856 218.248 172.062 218.261 172.266 218.273C172.059 218.26 171.854 218.248 171.65 218.236Z" fill="black"/>
<path fill-rule="evenodd" clip-rule="evenodd" d="M30.4541 53.0518C30.7629 53.0598 31.0717 53.0681 31.377 53.0764C31.0666 53.0681 30.7603 53.0598 30.4541 53.0518Z" fill="black"/>
<path fill-rule="evenodd" clip-rule="evenodd" d="M236.865 24.8173C236.353 24.7813 235.84 24.7453 235.327 24.709C235.84 24.7453 236.353 24.7813 236.865 24.8173Z" fill="black"/>
<path fill-rule="evenodd" clip-rule="evenodd" d="M74.751 23.377C74.0315 23.3782 73.3129 23.3794 72.5977 23.3806C73.3186 23.3794 74.0348 23.3782 74.751 23.377Z" fill="black"/>
<path fill-rule="evenodd" clip-rule="evenodd" d="M220.085 86.748C220.095 87.2615 220.105 87.7749 220.115 88.2861C220.106 87.7724 220.096 87.26 220.085 86.748Z" fill="black"/>
<path fill-rule="evenodd" clip-rule="evenodd" d="M182.417 196.885C182.005 196.879 181.595 196.872 181.187 196.865C181.599 196.871 182.008 196.878 182.417 196.885Z" fill="black"/>
<path fill-rule="evenodd" clip-rule="evenodd" d="M226.099 33.8975C226.714 33.8292 227.329 33.7609 227.944 33.6926C227.354 34.215 226.716 33.8674 226.099 33.8975Z" fill="black"/>
<path fill-rule="evenodd" clip-rule="evenodd" d="M179.033 197.046C178.725 197.034 178.416 197.023 178.11 197.012C178.42 197.023 178.727 197.034 179.033 197.046Z" fill="black"/>
<path fill-rule="evenodd" clip-rule="evenodd" d="M168.397 202.412C168.412 202.926 168.428 203.439 168.444 203.95C168.429 203.436 168.413 202.924 168.397 202.412Z" fill="black"/>
<path fill-rule="evenodd" clip-rule="evenodd" d="M215.332 52.7865C215.742 52.7483 216.153 52.7102 216.562 52.6724C216.188 52.9609 215.748 52.792 215.332 52.7865Z" fill="black"/>
<path fill-rule="evenodd" clip-rule="evenodd" d="M80.9033 134.624C81.3135 134.699 81.7241 134.774 82.1338 134.849C81.7236 134.774 81.3135 134.699 80.9033 134.624Z" fill="black"/>
<path fill-rule="evenodd" clip-rule="evenodd" d="M144.888 53.6806C145.399 53.2444 145.912 53.2917 146.426 53.6756C145.913 53.6769 145.401 53.6787 144.888 53.6806Z" fill="black"/>
<path fill-rule="evenodd" clip-rule="evenodd" d="M125.639 69.2139C125.654 69.0087 125.668 68.8035 125.684 68.5986C125.67 68.8041 125.655 69.009 125.639 69.2139Z" fill="black"/>
<path fill-rule="evenodd" clip-rule="evenodd" d="M215.172 63.3691C215.176 63.78 215.18 64.1908 215.185 64.5996C215.181 64.1878 215.176 63.7785 215.172 63.3691Z" fill="black"/>
<path fill-rule="evenodd" clip-rule="evenodd" d="M79.4527 127.671C80.1277 127.9 81.4851 128.591 82.2716 128.499C82.9012 128.425 83.4202 127.66 84.0274 127.661C85.6624 127.663 85.3593 129.553 84.5693 130.568C82.4329 133.312 77.659 130.336 79.4527 127.671Z" fill="black"/>
<path fill-rule="evenodd" clip-rule="evenodd" d="M86.1258 117.817C88.3554 118.393 87.245 123.297 85.3706 123.634C83.1636 124.032 82.7791 120.044 83.2151 118.603C84.3509 119.277 83.6477 121.685 85.079 121.02C85.9891 120.596 85.8508 118.638 86.1258 117.817Z" fill="black"/>
</svg>
