<svg width="315" height="237" viewBox="0 0 315 237" fill="none" xmlns="http://www.w3.org/2000/svg">
<path fill-rule="evenodd" clip-rule="evenodd" d="M174.807 56.2468C171.534 57.5459 169.336 60.5765 168.577 63.9714C168.226 65.5408 168.559 67.9366 167.531 69.2018C166.3 70.7162 164.386 69.4054 162.967 70.3544C159.731 72.5197 163.196 76.4283 165.608 77.0719C167.531 77.585 169.488 77.8994 171.422 78.274C173.237 78.6256 174.124 80.2305 175.214 81.6846C173.708 81.4339 172.231 81.0546 170.718 80.8153C170.066 80.7122 169.121 80.3883 168.443 80.4301C167.624 80.4809 167.102 81.0509 166.324 81.1859C164.987 81.4182 164.068 80.5599 163.541 82.2401C163.153 83.4783 163.77 84.9583 164.878 85.5692C163.899 86.5277 161.639 86.7855 160.358 87.1832C158.502 87.7591 156.613 88.1332 154.892 89.1052C154.892 86.0795 154.93 83.6841 153.451 80.9162C152.734 79.5725 151.366 75.7983 149.899 75.2366C149.458 75.0677 148.836 75.1609 148.376 75.0237C147.898 74.8813 147.634 74.4657 147.099 74.4516C146.125 74.4254 145.074 75.5627 144.496 76.3059C143.034 78.1854 143.091 81.1924 143.181 83.4568C143.275 85.7971 143.511 88.7352 144.468 90.9002C144.69 91.4031 144.918 91.9685 145.402 92.2709C145.755 92.4903 146.411 92.3171 146.682 92.5665C147.666 93.4734 146.3 93.9927 145.54 94.5479C143.601 95.9663 141.925 97.3408 140.506 99.2446C139.308 100.852 137.439 102.803 137.133 104.863C135.814 103.078 134.887 101.063 133.876 99.0988C133.301 97.9831 133.289 98.2092 133.9 97.3641C134.376 96.7055 135.213 96.0202 135.893 95.56C137.283 94.6187 138.721 93.6054 139.129 91.8141C139.438 90.4597 138.7 87.9569 138.277 86.5865C137.737 84.8352 136.324 83.4915 134.512 84.5144C133.171 85.2723 132.525 87.9821 131.224 88.3614C129.756 88.7893 129.958 85.2305 129.822 84.243C129.571 82.4007 128.597 79.3024 129.205 77.493C129.679 76.0841 131.965 75.3332 133.152 74.4762C134.916 73.2033 136.655 71.5821 137.895 69.7829C139.166 67.9375 139.054 66.0582 138.826 63.9074C138.693 62.6529 138.487 59.2387 136.393 59.9628C135.188 60.3796 129.803 67.7108 128.85 65.1089C128.581 64.3753 129.162 62.5262 129.264 61.6802C129.338 61.0635 129.326 58.1242 129.742 57.7144C129.902 57.5569 131.791 57.3025 132.203 57.0485C133.193 56.4384 133.937 55.639 134.532 54.6447C136.505 51.3511 134.262 46.2028 130.555 45.3762C128.139 44.8373 126.832 45.6848 125.48 47.6311C124.171 49.5149 121.602 48.7006 119.417 49.1547C119.006 48.0362 120.452 45.8358 120.835 44.7579C121.398 43.1703 122.019 41.5218 122.244 39.8468C122.681 36.5781 121.927 33.0522 120.89 29.9717C122.135 30.1624 123.903 30.0867 124.759 31.0173C125.617 31.9494 125.998 33.863 126.723 34.9834C128.122 37.1447 129.729 39.5032 131.654 41.2222C134.167 43.4665 135.161 42.4185 137.087 40.3344C139.04 38.222 138.016 35.2405 137.322 32.6323C138.902 32.3954 140.728 32.8399 142.281 33.09C143.689 33.3164 146.329 33.3675 147.523 34.2177C148.417 34.8536 148.1 35.5466 148.187 36.7968C148.304 38.4874 148.57 40.1969 149.084 41.8162C150.13 45.1111 152.494 46.2419 155.336 44.1221C156.323 45.4467 157.395 47.1985 158.919 47.9497C160.415 48.6877 163.197 49.295 164.871 49.4165C166.979 49.569 168.663 48.6314 170.406 47.5665C171.259 47.0454 171.499 46.6178 172.244 47.0269C172.794 47.3296 173.521 48.7597 174.08 49.2537C174.706 49.8068 175.395 50.3159 176.066 50.8127C176.378 51.0702 176.703 51.3114 177.04 51.5363C177.782 51.7134 178.031 52.1533 177.788 52.8559C178.257 54.2095 178.347 55.6433 178.743 57.0109C179.211 58.6268 180.322 59.5072 181.816 60.1034C182.334 60.2507 182.843 60.4255 183.342 60.6276C184.233 60.6451 184.435 61.005 183.948 61.7073C183.948 62.6511 182.99 64.0864 182.477 64.8293C181.973 63.43 180.027 61.8716 178.516 62.465C176.761 63.1547 176.693 65.1726 176.817 66.7507C175.72 66.2345 174.778 65.4892 173.84 64.7343C173.384 64.3673 172.63 63.9418 172.295 63.4518C171.714 62.6028 171.765 63.043 172.173 61.8916C172.625 60.6183 175.968 57.4856 174.807 56.2468Z" fill="#A89C8B"/>
<path fill-rule="evenodd" clip-rule="evenodd" d="M163.433 5.41384C164.948 5.80974 165.068 6.42775 166.216 7.10912C167.385 7.8031 169.62 7.23709 171.11 7.69421C171.893 7.93415 172.375 8.3682 173.043 8.78779C173.448 9.04219 173.398 9.17754 173.823 9.35411C174.044 9.44578 174.543 9.33534 174.804 9.39225C176.617 9.78877 176.779 11.9227 177.934 12.3411C178.822 12.6635 179.24 12.039 180.216 12.7256C180.767 13.1135 181.311 13.8379 181.603 14.4403C181.746 14.7359 181.885 15.7304 182.009 15.8784C182.402 16.3459 182.242 16.0918 182.624 16.3542C183.409 16.8938 184.332 16.8901 185.194 17.7988C186.363 19.0317 187.755 20.0087 188.033 21.7889C188.08 22.0909 188.09 22.3688 188.078 22.636L188.068 22.4783C188.089 22.8277 188.11 23.1766 188.13 23.5254C188.113 23.2289 188.095 22.9325 188.078 22.6366C188.052 23.2346 187.92 23.7785 187.867 24.4175C187.814 25.0466 187.731 25.0487 187.863 25.4997C187.953 25.8033 188.475 26.2125 188.601 26.6603C189.591 30.1724 183.895 34.1284 180.965 32.1529C179.769 34.6824 178.906 37.3442 177.757 39.8873C177.127 41.2808 173.812 44.5406 174.052 45.5314C174.249 46.3478 176.135 46.8969 176.793 47.2904C177.985 48.0041 179.141 48.8651 180.285 49.6535C181.279 50.3388 182.232 51.0683 183.2 51.7736L183.167 51.765C183.721 51.8931 184.133 52.2099 184.448 52.6546C185.111 53.1045 185.792 53.5304 186.507 53.9118C187.607 54.4991 187.9 54.6132 188.371 55.7849C188.853 56.9837 188.251 56.565 189.302 57.331C191.344 58.8193 194.454 59.4665 196.766 60.4786C201.896 62.7226 206.921 63.8999 212.561 62.9241C217.625 62.0483 222.357 59.6185 227.096 57.7214C231.788 55.8434 236.463 53.7885 240.91 51.4032C245.117 49.1469 249.281 46.7601 253.163 43.9343C255.338 42.3507 257.636 40.9399 259.727 39.2474C261.781 37.5848 263.695 35.74 265.781 34.1293C269.868 30.9731 274.178 27.9514 278.492 25.0915C279.721 24.2766 280.928 23.4276 282.13 22.5724C282.853 22.0578 284.304 20.5591 285.26 20.7446C288.246 21.3223 285.255 25.1807 284.751 26.3097C286.226 25.5215 287.429 24.3572 288.964 23.6309C289.749 23.2593 291.919 21.9449 292.749 22.4986C294.696 23.7983 290.099 28.0831 289.359 29.0776C290.591 28.3747 294.739 25.592 295.747 27.8696C296.801 30.2539 292.967 33.0803 291.57 34.4089C287.45 38.328 282.692 41.4143 278.5 45.218C277.922 45.7425 276.027 46.8985 276.17 47.8438C276.303 48.727 278.045 49.747 278.668 50.3333C279.894 51.4857 283.786 55.2358 281.308 57.1274C280.434 57.7946 277.94 57.2424 276.895 57.132C275.363 56.9705 273.854 56.8456 272.334 56.5918C270.1 56.2184 267.91 54.4665 265.673 54.4003C263.159 54.3262 260.452 56.5506 258.289 57.6239C255.748 58.8842 253.306 60.2798 250.778 61.5672C245.95 64.0248 241.341 66.7782 236.36 68.9931C230.897 71.4214 225.04 72.9927 219.645 75.573C214.154 78.1988 208.862 79.0331 202.849 78.8476C196.979 78.6667 190.705 74.7784 186.059 71.4485C185.791 71.2544 185.522 71.0603 185.254 70.8662C184.756 70.106 184.322 70.0864 183.951 70.8065C183.197 70.9298 182.885 71.047 181.986 70.984C180.518 70.8812 179.784 70.5509 178.437 70.0528C175.385 68.9242 173.079 68.0438 170.921 65.409C169.507 69.0872 173.073 72.9681 174.982 75.8468C176.033 77.4332 177.23 78.946 178.137 80.6229C178.873 81.985 179.138 84.1011 180.547 84.6994C181.389 85.0569 181.909 84.4653 182.476 85.3137C182.847 85.8677 182.441 86.5036 182.369 86.9718C182.184 88.1613 181.609 86.4848 182.021 88.2392C182.151 88.7932 182.93 89.8495 183.19 90.3583C184.957 93.8264 186.399 97.4551 187.91 101.042C189.415 104.611 190.905 108.146 192.379 111.721C193.015 113.264 193.907 114.687 194.513 116.246C195.253 118.148 195.707 120.133 196.411 122.049C197.504 125.024 197.714 128.958 196.812 132.034C195.928 135.045 192.092 138.141 189.035 137.948C190.45 140.782 192.056 143.33 193.531 146.113C194.913 148.721 195.879 151.506 197.313 154.019C198.946 156.881 200.372 159.934 202.009 162.737C203.393 165.105 204.26 167.801 205.56 170.207C208.522 175.691 211.377 181.393 214.553 186.834C216.4 190 218.065 193.257 219.939 196.412C220.941 198.099 221.966 199.771 222.986 201.447C223.576 202.415 224.242 204.54 225.348 205.008C225.03 205.34 224.01 206.103 223.974 206.587C223.876 207.877 225.18 207.52 225.911 207.342C227.766 206.891 229.553 206.417 231.346 205.774C234.779 204.541 238.048 202.796 241.52 201.691C245.126 200.542 248.523 198.538 252.265 197.684C253.968 197.295 259.567 194.907 260.061 196.91C260.155 197.289 259.91 198.199 259.914 198.659C259.921 199.471 260.134 200.196 260.018 201.04C259.796 202.657 258.908 204.272 258.043 205.622C255.972 208.852 253.649 212.02 250.919 214.721C246.237 219.353 242.006 225.564 236.229 228.871C235.083 229.527 233.997 230.69 232.701 231.035C231.262 231.418 230.039 230.937 228.752 230.883C228.045 230.853 228.006 231.247 227.153 230.926C226.452 230.662 225.552 229.809 224.98 229.358C223.537 228.219 222.317 226.776 221.126 225.38C220.073 224.145 218.957 221.787 217.531 220.999C216.739 220.561 216.782 221.264 216.071 220.289C215.678 219.751 215.642 219.201 215.157 218.661C214.64 218.085 214.313 218.003 213.971 217.308C213.732 216.823 213.722 216.349 213.413 215.85C212.384 214.191 210.828 212.768 209.725 211.126C208.076 208.673 205.959 206.551 204.224 204.168C202.148 201.317 199.839 198.477 197.587 195.768C193.248 190.549 189.259 184.792 185.15 179.277C180.706 173.311 176.555 166.943 172.849 160.485C170.863 157.024 168.46 153.674 166.374 150.252C164.335 146.907 162.458 143.403 160.073 140.299C159.613 140.663 160.39 141.983 159.825 142.524C159.234 143.091 156.467 143.113 155.712 143.244C153.134 143.689 150.388 144.185 147.768 144.284C142.371 144.489 137.05 145.585 131.611 145.822C130.396 145.875 129.431 145.682 128.259 145.438C126.501 145.071 126.171 144.861 125.811 146.59C125.263 149.22 124.615 152.033 124.372 154.698C124.122 157.451 124.077 160.208 124.039 162.973C124.021 164.291 123.985 165.61 123.991 166.927C124 168.843 124.521 170.713 124.422 172.625C124.295 175.063 123.867 177.183 121.357 177.87C119.952 178.253 119.924 178.058 118.932 177.286C117.888 176.475 116.511 175.742 115.632 174.78C112.366 171.207 109.778 166.202 108.792 161.424C107.675 156.011 109.179 150.174 109.726 144.791C109.957 142.529 110.045 138.893 111.638 137.096C113.339 135.175 116.812 135.239 119.098 135.214C119.62 135.208 120.023 135.155 120.372 135.062C120.293 135.055 120.214 135.051 120.136 135.053L120.581 135C121.205 134.795 121.681 134.453 122.451 134.029C123.531 133.432 125.096 133.131 126.264 132.681C129.439 131.459 132.781 130.842 135.997 129.757C138.597 128.88 141.181 128.364 143.821 127.725C145.754 127.257 147.769 127.168 149.706 126.838C149.485 126.812 149.264 126.786 149.048 126.816C149.506 126.516 150.005 126.679 150.491 126.688C150.961 126.588 151.426 126.469 151.881 126.32C148.845 120.801 146.071 115.174 142.705 109.838C141.97 111.182 140.723 111.206 139.263 110.747C138.446 110.49 138.106 109.683 137.341 109.395C136.864 109.216 136.58 109.759 136.08 109.372C135.79 109.147 135.611 108.351 135.441 107.669C132.637 104.838 131.309 101.627 130.011 97.8877C130.965 99.6589 131.835 101.483 132.822 103.236C133.045 103.633 133.331 104.036 133.636 104.444L133.548 104.314C133.142 103.712 132.747 103.1 132.4 102.448C129.338 96.6894 127.705 91.04 126.706 84.6142C125.812 78.8602 125.629 72.7851 125.826 66.969L125.791 67.713C125.803 67.4598 125.815 67.2063 125.827 66.9528L125.826 66.969C125.84 66.5635 125.859 66.1613 125.883 65.7617L125.883 65.7615C126.036 63.2806 126.399 60.8988 126.975 58.4449C127.201 57.4857 127.672 56.0738 127.692 55.1208C127.705 54.5422 127.538 51.7121 127.35 51.5543C126.621 50.9427 123.788 51.4189 122.988 51.5017C121.531 51.6527 120.084 51.8819 118.627 52.0348C118.335 52.0631 118.042 52.0911 117.749 52.1191C117.187 51.9751 116.776 52.1344 116.518 52.5971C115.752 52.7318 116.72 53.3667 115.653 52.7454C114.414 52.024 114.445 49.3397 114.441 48.1222C114.439 47.6617 114.779 45.7138 114.462 45.3742C114.218 45.1125 112.541 45.2174 112.121 45.1829C110.528 45.0531 108.925 44.8602 107.327 44.7962C104.173 44.6695 100.972 44.7482 97.8183 44.7621C92.2135 44.7861 86.905 47.3381 82.2236 50.2192C80.0617 51.5497 77.6758 52.4762 75.5413 53.8343C73.4412 55.1709 71.5967 56.8124 69.5332 58.2163C66.6481 60.1789 63.6242 61.8238 60.9485 64.0703C59.6673 65.1457 57.9662 66.2211 57.0276 67.6448C56.0848 69.0743 56.7197 70.6917 56.6803 72.3317C56.6373 74.1081 56.7496 75.9923 56.445 77.7334C56.3395 78.3373 56.246 79.4878 55.6898 79.8827C54.842 80.4847 55.0555 80.0448 54.3286 79.6431C51.1838 77.9041 50.6252 74.6489 49.7184 71.5448C44.5209 78.5228 41.066 86.582 36.1512 93.7947C35.3985 94.8997 34.0868 97.24 32.5066 96.1065C31.5557 95.4243 31.3956 94.0958 31.5053 92.8139L31.5065 93.1701C31.505 92.8292 31.5041 92.4899 31.5031 92.1509C31.5041 92.3712 31.505 92.5917 31.5057 92.8116C31.5794 91.9513 31.7746 91.1123 31.9338 90.5038C32.5309 88.2232 33.0532 85.8911 34.1277 83.7784C34.6663 82.7196 35.3102 81.7167 35.8565 80.6622C36.1361 80.1236 37.0033 79.0522 36.9652 78.4471C36.7043 78.7781 36.4441 79.1088 36.1832 79.4401C34.9564 80.0319 34.021 81.9481 33.0077 82.9014C32.0857 83.7685 31.0386 84.6317 30.0432 85.4595C28.2168 86.9773 26.6305 88.6261 25.0825 90.4746C24.1431 91.5965 22.9526 92.6633 22.1156 90.6075C21.4757 89.0362 22.4792 87.6258 23.2128 86.2833C24.172 84.5284 25.1364 82.9395 26.4102 81.3993C27.4893 80.0953 29.0046 78.7049 29.4276 77.0613C27.2771 78.5529 25.3483 80.2931 23.023 81.5389C21.1727 82.5301 18.1842 82.4759 19.3245 79.5038C20.1526 77.3464 22.7046 74.7249 24.3904 73.1536C26.1423 71.5202 28.1538 70.0015 30.0352 68.5046C34.4092 65.0242 39.2864 62.1652 43.8998 59.0048C48.1123 56.119 52.4198 53.395 56.6047 50.5702C66.0018 44.2265 75.2017 37.1338 86.0901 33.4931C91.1467 31.8025 96.4651 30.485 101.708 29.5769C104.414 29.1084 107.306 28.439 110.044 28.3181C111.053 28.2735 112.027 28.4639 113.025 28.4036C114.062 28.3412 115.345 28.6146 116.366 28.3781C117.44 28.1295 118.388 26.9815 119.456 27.0516C119.808 27.075 120.134 27.4451 120.49 27.4801C120.49 27.4802 120.49 27.4801 120.49 27.48C120.933 27.4327 121.367 27.0752 121.785 27.4526C121.785 27.4528 121.785 27.4528 121.785 27.4528C123.267 27.4957 124.746 27.516 126.221 27.5899L126.156 27.6178C126.687 27.3791 127.217 27.4185 127.747 27.6212C127.415 27.6204 127.084 27.6198 126.752 27.6191C127.898 27.6874 129.041 27.7939 130.18 27.9745C135.118 28.7577 140.879 29.1693 145.591 31.1387C145.57 31.1152 145.549 31.0906 145.528 31.0653C145.948 30.9761 146.266 31.1404 146.52 31.4646C146.476 31.4777 146.432 31.4873 146.39 31.4935C146.925 31.7443 147.445 32.0184 147.945 32.3183C148.706 30.6837 147.285 31.1765 145.963 30.5662C144.503 29.8922 143.353 29.0499 142.261 27.9019C141.328 26.9206 140.53 25.696 140.855 24.2339C141.024 23.4777 141.867 23.1772 142.016 22.6232C142.067 22.4346 141.551 21.8061 141.53 21.5354C141.478 20.8876 141.477 20.3911 141.626 19.7534C142.384 16.5194 142.057 12.3688 145.726 10.9814C146.52 10.6815 146.503 11.0152 147.093 10.3905C147.664 9.78631 147.877 8.78317 148.53 8.13133C149.778 6.88487 151.338 5.91341 153.067 5.53012C154.879 5.12806 156.414 5.7516 158.156 5.69039C160.046 5.62394 161.457 4.89704 163.433 5.41384ZM254.419 202.385C253.125 203.44 251.788 204.478 250.447 205.471C247.38 207.745 244.522 210.233 241.616 212.709C238.987 214.949 236.172 216.955 233.434 219.057C230.832 221.054 228.517 223.41 226.082 225.611C227.668 226.538 229.392 227.904 231.308 227.463C232.863 227.106 234.699 225.753 236.04 224.874C239.163 222.83 241.774 220.01 244.383 217.373C246.94 214.788 249.383 212.264 251.798 209.582C254.512 206.567 256.432 203.693 258.249 200.08C256.866 199.162 255.347 201.63 254.419 202.385ZM231.214 209.666C229.39 210.257 227.499 210.516 225.681 211.075C224.099 211.562 222.743 213.096 221.746 214.371C221.092 215.208 220.663 216.193 220.077 217.095C219.746 217.605 218.48 218.805 218.496 219.304C218.516 219.948 220.377 221.563 220.815 222.057C221.626 222.973 222.46 223.869 223.309 224.75C224.557 222.127 227.541 219.925 229.768 218.126C232.079 216.259 234.503 214.411 236.896 212.563C242.179 208.48 247.154 204.45 252.86 200.918C252.517 200.094 233.335 208.977 231.214 209.666ZM222.383 208.126C220.641 210.288 217.997 212.73 217.431 215.564C218.528 214.298 219.498 212.907 220.56 211.609C221.022 211.045 221.503 210.542 222.022 210.029C222.973 209.09 223.274 209.174 222.383 208.126ZM177.518 88.3822C174.037 88.6428 170.518 89.2558 167.088 90.0095L166.929 90.0095C167.181 90.0095 167.429 90.0101 167.677 90.0107C167.48 90.0107 167.282 90.0105 167.086 90.01C166.258 90.1919 165.434 90.3822 164.618 90.5777C156.575 92.5035 148.582 96.3387 142.776 102.308L142.581 102.51C142.31 102.94 141.68 103.541 141.805 104.119C141.412 103.872 141.287 103.659 141.326 103.466C141.271 103.546 141.223 103.633 141.181 103.727C142.827 104.761 143.878 107.136 144.965 108.74C146.19 110.547 147.563 112.247 148.736 114.093C151.287 118.105 153.733 122.25 156.025 126.417C159.991 133.629 164.876 140.474 169.239 147.453C173.594 154.421 177.75 161.288 182.104 168.247C186.739 175.654 192.057 182.633 196.845 189.855C199.7 194.16 202.96 198.199 205.885 202.464C208.653 206.501 211.381 210.538 214.201 214.538C215.688 210.362 218.587 206.775 222.592 204.663C217.137 196.92 211.917 189.075 207.115 180.902C202.978 173.861 199.329 166.798 195.487 159.672C191.703 152.651 187.968 145.623 184.143 138.608C182.233 135.104 180.624 131.423 178.985 127.762C177.242 123.868 176.509 119.53 174.621 115.709C173.739 113.922 172.543 111.86 172.661 109.79C172.771 107.838 174.128 105.845 175.17 104.272C175.79 103.339 176.977 100.743 178.251 100.73C180.55 100.707 177.826 105.404 177.466 106.328C175.808 110.584 178.116 114.265 179.851 118.078C181.545 121.802 182.892 125.71 184.694 129.39C185.451 130.935 186.219 132.443 186.908 134.01C187.146 134.551 187.8 136.329 188.405 136.505C188.751 136.606 190.467 135.495 190.732 135.326C192.075 134.469 193.906 132.98 194.712 131.593C195.51 130.219 195.187 127.876 194.821 126.407C193.758 122.141 191.521 118.084 189.762 114.082C187.916 109.882 185.979 105.628 184.388 101.323C183.528 98.9974 182.754 96.6509 181.814 94.354C181.28 93.0481 180.721 91.7528 180.127 90.4731C179.373 88.8467 179.316 88.2475 177.518 88.3822ZM115.831 139.15C114.156 139.96 113.711 140.389 113.37 142.207C113.015 144.096 113.172 145.96 112.977 147.86L112.975 147.873L112.951 148.206C112.959 148.096 112.967 147.986 112.975 147.876L112.977 147.86C112.673 150.812 112.298 153.763 112.118 156.68C111.881 160.495 113.279 164.055 114.936 167.383C115.666 168.848 116.409 170.271 117.516 171.498C118.195 172.251 118.983 172.89 119.763 173.534C120.75 174.347 120.9 174.849 121.545 173.747C122.336 172.392 121.705 170.194 121.48 168.732C121.126 166.428 120.943 164.229 120.972 161.888C121.061 160.833 121.124 159.775 121.183 158.718C121.182 158.632 121.182 158.547 121.181 158.462L121.183 158.716C121.328 156.132 121.452 153.548 121.877 150.985C122.03 150.063 122.214 149.146 122.443 148.24C122.652 147.413 123.499 145.914 123.431 145.103C123.363 144.285 122.09 142.758 121.849 141.399C121.712 140.619 121.71 139.793 121.667 139.005C121.604 137.864 121.877 137.587 120.889 137.269C119.708 136.889 116.845 138.66 115.831 139.15ZM98.5256 130.211C98.0768 131.574 96.2517 132.931 95.3086 133.946C92.7335 136.719 90.7395 139.537 88.7185 142.712C85.4756 147.804 82.52 153.738 81.1665 159.698C77.7138 160.652 78.9153 153.548 79.3894 152.173C80.5528 148.8 81.9091 145.484 83.6742 142.381C85.2932 139.536 87.504 136.453 89.7653 134.082C90.6999 133.102 91.8011 131.906 92.8199 130.994C93.7182 130.19 95.7352 128.233 96.8605 128.048C98.1743 127.831 98.9815 128.827 98.5256 130.211ZM221.865 109.396C223.88 113.133 224.862 117.749 225.588 121.905C226.246 125.671 226.767 129.784 226.668 133.608C226.766 134.264 226.805 134.924 226.814 135.585L226.799 136.185C226.811 135.698 226.823 135.21 226.834 134.724C227.033 135.207 227.057 135.685 226.815 136.156C226.804 137.12 226.746 138.086 226.725 139.05C226.695 140.444 226.991 143.292 226.04 144.491C224.591 146.32 224.157 143.041 224.067 142.144C223.842 139.901 223.81 137.631 223.632 135.383C223.01 127.504 221.992 118.797 218.961 111.457C218.674 110.76 218.221 109.268 217.669 108.775C217.278 108.426 216.977 108.809 216.526 108.199C216.056 107.562 215.391 103.858 216.202 103.14C217.901 101.635 221.168 108.103 221.865 109.396ZM83.8872 127.752C86.2989 129.434 77.4469 133.536 76.2601 134.289C74.1385 135.636 72.024 136.942 69.9503 138.366C67.7721 139.862 65.7107 141.653 63.4713 143.018C60.6646 139.713 68.5676 134.902 70.8605 133.669C73.1898 132.417 75.4068 130.991 77.8268 129.929C78.9838 129.422 82.6644 126.9 83.8872 127.752ZM152.524 128.968C152.049 129.041 151.131 129.616 150.671 129.777C146.146 131.37 140.926 132.124 136.756 134.384C133.94 134.411 130.969 136.093 128.269 136.869C127.197 137.177 125.049 137.483 124.148 138.096C123.138 138.784 123.62 141.622 123.62 142.876C125.377 141.23 127.438 141.567 129.762 141.468C133.032 141.329 136.281 141.006 139.533 140.819C142.982 140.621 146.352 140.085 149.818 140.099C153.231 140.112 156.57 139.4 159.931 140.057C159.345 137.755 157.236 135.29 155.955 133.322C155.165 132.109 154.585 130.566 153.688 129.442C153.006 128.588 153.486 128.817 152.524 128.968ZM129.569 141.463L128.406 141.482C128.789 141.172 129.178 141.244 129.569 141.463ZM232.564 113.541C234.225 118.277 235.76 122.899 235.862 127.976C235.897 129.735 235.946 132.511 235.201 134.131C233.962 136.828 232.846 134.442 232.895 132.591C232.488 127.936 231.932 123.252 230.928 118.683C230.46 116.558 229.428 113.873 229.801 111.67C230.35 108.432 232.195 112.488 232.564 113.541ZM232.895 132.591C232.883 133.046 232.871 133.501 232.858 133.954C232.87 133.498 232.882 133.045 232.895 132.591ZM243.279 122.425C243.819 123.843 244.745 127.222 243.852 128.616C242.66 130.477 241.769 128.392 241.42 127.055C240.872 124.952 240.912 122.765 240.119 120.73C241.329 118.152 242.596 120.63 243.279 122.425ZM73.5265 120.446C73.5265 121.934 71.2566 122.39 70.0298 123.006C69.1264 123.459 68.0672 124.783 67.4895 123.727C66.519 121.952 72.333 120.446 73.5265 120.446ZM120.89 29.9715C121.927 33.0499 122.681 36.581 122.244 39.8467C122.019 41.525 121.397 43.1674 120.835 44.7578C120.488 45.7397 119.025 48.0887 119.417 49.1545C121.031 48.8192 123.685 49.3788 124.992 48.4799C126.478 47.458 126.343 45.3235 128.686 45.1807C132.281 44.9617 135.177 48.1536 135.428 51.729C135.558 53.5796 134.195 55.5361 132.811 56.629C132.065 57.2184 131.356 57.4051 130.536 57.7746C129.992 58.0199 129.832 58.0091 129.796 57.9966L129.794 57.9957L129.796 57.9983C129.82 58.0296 129.859 58.1737 129.621 58.7181C129.326 59.3945 129.41 60.4665 129.323 61.1895C129.195 62.2492 128.77 63.5726 128.909 64.6166C129.06 65.7413 129.011 65.8606 130.229 65.4598C131.629 64.9993 133.426 63.0625 134.477 62.0197C135.509 60.9969 136.53 58.8036 138.012 60.5588C139.149 61.905 139.146 65.2835 138.973 66.9527C138.569 70.8314 134.151 73.9928 131.06 75.8351C128.881 77.1339 129.193 77.9847 129.33 80.4361C129.441 82.4249 129.754 84.4293 130.018 86.4021C130.338 88.7858 131.103 88.8224 132.273 87.0545C133.168 85.7016 134.634 83.4849 136.557 84.261C138.466 85.0313 138.302 87.5079 138.73 89.1272C139.328 91.3935 139.136 93.0989 137.208 94.7551C136.333 95.5072 133.512 96.7312 133.272 97.9506C133.156 98.5434 134.524 100.398 134.85 101.032C135.532 102.356 136.246 103.662 137.133 104.863C137.433 102.846 139.198 101.137 140.301 99.5287C141.634 97.587 143.264 96.2206 145.176 94.8123C145.876 94.2971 147.642 93.6046 146.815 92.7098C146.097 91.9324 145.35 92.5067 144.638 91.2606C143.446 89.1725 143.275 85.8093 143.181 83.4566C143.098 81.3553 143.021 78.4074 144.27 76.5851C145.79 74.3665 147.312 74.2819 149.591 75.2273C151.369 75.9652 152.301 78.8347 153.252 80.5472C154.86 83.4425 154.892 85.9019 154.892 89.1051C156.613 88.133 158.502 87.759 160.358 87.1831C161.639 86.7854 163.899 86.5276 164.878 85.569C163.827 84.9898 163.266 83.731 163.484 82.543C163.842 80.5961 164.842 81.4433 166.324 81.1858C166.989 81.0704 167.47 80.5687 168.138 80.4727C168.822 80.3749 169.558 80.6475 170.238 80.7527C171.915 81.012 173.549 81.4073 175.214 81.6844C174.286 80.4475 173.351 78.7639 171.858 78.2976C170.06 77.7353 167.897 77.6445 166.019 77.1751C163.596 76.57 159.42 72.7276 162.967 70.3546C164.308 69.4576 166.07 70.5948 167.339 69.3924C168.543 68.2523 168.188 65.8828 168.51 64.3475C169.254 60.8092 171.368 57.6119 174.807 56.2467C175.986 57.5054 172.629 60.6105 172.173 61.8914C171.902 62.6546 171.694 62.5703 171.974 63.2037C172.168 63.6442 173.12 64.1423 173.532 64.4791L173.877 64.7609C174.797 65.5108 175.735 66.2411 176.817 66.7506C176.692 65.17 176.753 63.1576 178.516 62.4648C180.032 61.8693 181.974 63.4332 182.477 64.8292C182.99 64.0863 183.948 62.6513 183.948 61.7072C184.434 61.0049 184.233 60.645 183.342 60.6274C182.966 60.4712 182.583 60.3358 182.192 60.2211C180.536 59.5705 179.277 58.8423 178.743 57.0108C178.344 55.6428 178.256 54.2075 177.788 52.8558C178.031 52.1532 177.782 51.7133 177.04 51.5361C176.809 51.3697 176.578 51.2036 176.347 51.0372C175.581 50.4742 174.792 49.883 174.08 49.2536C173.519 48.7577 172.996 47.7297 172.431 47.3485C172.304 47.0837 172.132 46.8508 171.915 46.6505C171.414 46.9588 170.911 47.2639 170.406 47.5663C168.658 48.6344 166.991 49.5827 164.871 49.4163C163.216 49.2862 160.764 48.7199 159.221 48.104C157.535 47.4313 156.376 45.5173 155.336 44.1219C152.494 46.2417 150.135 45.1051 149.084 41.816C148.615 40.3487 148.351 38.7934 148.218 37.2611C148.11 36.0088 148.483 34.8999 147.523 34.2176C146.326 33.3655 143.695 33.3169 142.281 33.0899C140.73 32.8407 138.901 32.3956 137.322 32.6321C138.015 35.2333 139.046 38.2304 137.087 40.3342C135.151 42.4131 134.177 43.475 131.654 41.222C129.724 39.4984 128.133 37.1442 126.723 34.9832C125.984 33.85 125.655 32.3725 124.908 31.2986C124.047 30.0626 122.337 30.1933 120.89 29.9715ZM118.451 30.499C117.811 30.4865 116.293 30.7713 115.659 30.8981C113.933 31.2432 112.218 31.5238 110.41 31.8123C106.357 32.4586 102.324 33.296 98.2893 34.0198C94.5877 34.6839 90.4807 35.5908 86.9619 36.9997C83.116 38.5393 79.3828 40.0365 75.7209 41.9892C72.0489 43.9472 68.8958 46.4989 65.3856 48.6593C58.8054 52.7088 52.1458 56.8733 45.6919 61.1731C41.5874 63.9076 37.2082 66.275 33.2276 69.1632C31.1767 70.6511 29.1803 72.2061 27.2266 73.819C25.7888 75.0055 23.1793 76.6405 22.7969 78.6227C24.7238 78.6227 27.3309 75.2552 28.9019 74.2014C30.0459 73.4338 31.3265 72.8137 32.5155 72.1148C33.1978 71.7137 35.3782 69.6246 36.1201 69.6139C37.1903 69.5982 37.3469 71.1273 37.0802 71.8185C36.7344 72.7143 35.7153 73.4498 35.0382 74.0915C32.8311 76.1836 31.0005 78.9368 29.5328 81.5965C32.2325 80.6035 34.4713 77.3446 36.3908 75.2565C37.4054 74.1527 42.5893 69.3933 42.2208 73.902C42.0845 75.5702 40.8808 76.8453 40.0416 78.225C39.1342 79.7172 38.1996 81.231 37.4014 82.7833C35.7799 85.9351 34.5547 89.1774 33.5866 92.5938C35.2656 91.9324 35.7045 90.0827 36.488 88.6351C37.2857 87.1613 38.2187 85.737 39.1145 84.322C41.0152 81.319 42.6665 78.1607 44.6848 75.23C45.4818 74.0718 49.0431 67.9527 50.4742 68.8156C51.4379 69.3964 51.7231 72.1296 52.0123 73.089C52.47 74.6068 53.175 76.1972 54.6999 76.8847C54.7697 73.7845 54.6633 70.6884 54.7128 67.5962C54.7522 65.1626 56.0688 64.468 57.7299 62.7694C61.5816 58.8303 66.5066 56.2894 71.0781 53.3185C73.1126 51.9963 74.9962 50.2758 77.2433 49.1748C79.7704 47.937 82.2255 46.5087 84.6932 45.122C89.9506 42.168 95.8588 41.0765 101.842 41.6668L101.852 41.6679C101.376 41.6209 100.901 41.5738 100.426 41.5267C100.898 41.5735 101.37 41.6202 101.842 41.667C101.845 41.6671 101.848 41.6674 101.852 41.6678C107.525 40.8726 113.887 41.972 119.11 44.1764C120.254 40.2324 120.68 36.0817 119.777 32.0338C119.512 30.8464 119.557 30.5219 118.451 30.499ZM169.882 89.5845C169.641 89.5975 169.4 89.6101 169.156 89.623C169.396 89.6101 169.639 89.5975 169.882 89.5845ZM283.589 24.0967C281.939 25.5905 279.78 26.8295 277.958 28.0748C276.285 29.2182 274.728 30.5194 273.075 31.6622C268.782 34.6313 264.86 38.1425 260.7 41.3294C252.887 47.315 244.745 52.7164 235.806 56.8896C231.591 58.8571 227.254 60.5699 222.923 62.2553C218.703 63.8977 214.725 66.1455 210.062 66.1621C207.67 66.1704 205.146 66.235 202.771 65.8745C200.209 65.4853 197.537 63.9515 195.203 62.8727C194.105 62.3655 192.985 61.8819 191.929 61.2919C190.958 60.7496 189.649 59.3619 188.623 59.1826C186.306 58.7774 186.068 63.5369 185.469 65.1989C185.266 65.764 184.576 66.749 184.568 67.304C184.553 68.3465 184.394 67.814 185.325 68.4883C186.335 69.2201 187.734 69.8153 188.855 70.3915C190.978 71.4811 193.242 72.4529 195.429 73.3585C197.771 74.3287 200.035 74.9689 202.57 75.2436C203.664 75.3621 204.697 75.3939 205.732 75.4017L205.686 75.4217C206.147 75.2196 206.608 75.0698 207.078 75.398L206.73 75.4039C207.488 75.4031 208.258 75.4004 209.065 75.4198C208.662 75.41 208.26 75.4004 207.857 75.3906C208.265 75.1971 208.669 75.1565 209.065 75.4198C214.99 74.7674 220.191 71.3611 225.755 69.5456C231.426 67.6949 237.313 65.0353 242.7 62.2452C247.813 59.5963 252.938 56.8951 258.192 54.4674C261.206 53.0745 264.41 50.1897 267.858 51.2799C269.447 51.7825 270.867 52.7638 272.515 53.1047C274.411 53.4966 276.251 53.5636 278.127 54.1266C278.009 53.2545 275.536 51.9452 274.964 51.0402C274.582 50.4364 274.528 49.7504 274.211 49.1545C273.921 48.6098 273.473 48.5636 273.36 47.9213C272.925 45.4478 276.994 42.8555 278.534 41.4761C283.441 37.0766 289.21 33.5636 294.1 29.0428C291.154 29.0428 287.596 32.8068 285.391 34.5255C283.909 35.6815 282.44 36.8394 280.877 37.8859C280.449 38.1726 278.462 39.6938 277.917 39.5234C276.387 39.0459 277.844 36.3767 278.399 35.7793C279.483 34.6095 280.944 33.6691 282.189 32.6807C284.81 30.6 287.204 28.3812 289.426 25.8273C287.234 25.9587 284.212 29.5836 282.661 31.0227C280.966 32.5952 278.724 34.7285 276.521 35.5536C275.383 35.9796 274.819 35.863 274.734 34.4831C274.637 32.9096 275.862 32.0809 276.92 31.1488C279.031 29.2902 282.416 26.692 283.589 24.0967ZM158.468 64.5929C158.761 67.1852 156.849 70.3931 153.982 70.5001C150.91 70.6142 150.732 67.0099 150.842 64.8215C150.901 63.6464 150.757 62.9536 151.567 62.1415C151.904 61.805 152.719 61.6607 153.118 61.3362C153.632 60.9181 153.979 60.3094 154.484 59.8741C157.086 57.6306 158.778 62.5137 158.468 64.5929ZM146.891 46.686C147.882 47.3028 148.964 48.8849 149.439 49.9058C150.282 51.7174 150.944 53.4502 151.365 55.398C150.902 57.4917 148.882 62.9854 145.662 61.6833C142.32 60.3319 142.236 56.0883 142.221 53.2201C142.21 51.1314 143.362 44.4918 146.891 46.686ZM168.791 56.3257C168.841 58.2308 166.38 60.3081 164.869 61.1138C162.411 62.4255 161.914 59.138 162.078 57.3596C162.261 55.3721 163.06 54.2721 164.89 53.4267C167.607 52.1713 168.224 54.0204 168.791 56.3257ZM129.791 57.9928C129.786 57.9886 129.784 57.9914 129.792 57.995L129.794 57.9957L129.791 57.9928ZM163.369 25.9267C162.457 26.2158 161.083 27.9677 160.386 28.6679C159.955 29.1007 159.215 30.4283 158.6 30.5049C157.686 30.6191 157.769 30.1872 157.148 29.4427C154.806 26.637 152.329 26.6471 150.984 30.0521C151.768 30.4407 152.597 30.5117 153.455 30.4819C153.746 30.472 154.865 30.1376 155.08 30.2801C156.298 31.087 154.514 31.7843 154.269 32.1978C154.083 32.5115 153.993 32.7905 153.92 33.0405C153.931 33.2642 153.941 33.4884 153.951 33.7136C153.936 33.3967 153.921 33.0777 153.907 32.759L153.919 33.0424C153.743 33.6509 153.672 34.0873 152.59 34.4329C151.53 34.7716 150.64 34.4754 149.586 34.1437C149.719 36.2193 149.714 39.918 151.167 41.6223L151.248 41.7131C151.658 41.9008 152.068 42.0881 152.478 42.2758C152.422 42.2802 152.367 42.283 152.312 42.2838C153.017 42.2974 153.857 41.9822 154.357 41.8757C154.14 40.8449 152.962 37.3482 153.495 36.601C154.502 35.1881 154.944 37.2937 155.195 38.2461C155.785 40.4881 157.072 43.433 159.098 44.8417C159.078 44.8102 159.059 44.7759 159.042 44.7387C159.525 44.8242 160.042 44.8454 160.282 45.3924C160.138 45.3323 159.979 45.2991 159.823 45.2617L159.823 45.262C161.747 46.162 165.349 47.6586 167.276 46.6527C169.941 45.261 172.091 42.9561 174.34 41.0242C172.79 40.2583 172.578 39.0702 173.783 37.8256C176.338 40.5643 177.901 34.6879 178.722 32.8951C177.15 32.7564 175.74 33.7023 174.132 33.3802C172.822 33.1178 171.242 32.6567 170.119 31.92C168.619 30.9353 167.305 29.5138 166.016 28.2827C165.245 27.5457 164.197 25.6637 163.369 25.9267ZM116.178 45.54C116.251 45.8394 116.322 46.1316 116.393 46.4244C116.822 45.6136 116.822 45.6136 116.178 45.54ZM165.638 45.0502C165.001 44.9801 162.475 44.5285 164.101 43.8004C164.931 43.4285 165.716 44.2876 165.638 45.0502ZM173.232 35.9475C173.585 36.779 172.176 38.2688 171.78 38.9834C171.16 40.1034 170.08 44.7866 168.331 44.3123C166.408 44.3073 166.726 42.4758 167.783 41.584C168.152 41.273 168.555 41.2582 168.921 40.8617C169.238 40.5172 169.435 39.8266 169.647 39.4048C170.165 38.3722 170.632 37.1752 171.452 36.3428C172.111 35.6741 172.806 34.9472 173.232 35.9475ZM163.937 34.8305C164.87 34.9394 164.261 35.3851 164.74 35.7823C165.061 36.0479 165.11 36.1791 165.083 36.2394L165.079 36.2462L165.103 36.2448C165.23 36.2376 165.463 36.242 165.868 36.28C166.756 36.3631 169.487 35.5666 167.752 37.3231C167.374 37.7055 165.101 38.7738 164.595 38.5299C163.466 37.9863 163.945 35.773 163.937 34.8305ZM165.079 36.2462C164.853 36.2641 165.031 36.3225 165.079 36.2479L165.079 36.2462ZM90.5647 35.9961C90.3223 36.0029 90.0796 36.0096 89.8341 36.0161C90.0756 36.009 90.3202 36.0026 90.5647 35.9961ZM128.196 27.6715C128.581 27.7223 128.966 27.7728 129.351 27.8235C128.965 27.7728 128.58 27.7223 128.196 27.6715Z" fill="black"/>
</svg>
